<svg width="56" height="56" viewBox="0 0 56 56" fill="none" xmlns="http://www.w3.org/2000/svg">
<circle cx="28" cy="28" r="28" transform="matrix(-1 0 0 1 56 6.10352e-05)" fill="#F6F7F9" fill-opacity="0.2"/>
<path d="M22.9253 16.0677C22.5738 16.4193 22.3763 16.8961 22.3763 17.3933C22.3763 17.8905 22.5738 18.3673 22.9253 18.7189L32.2066 28.0001L22.9253 37.2814C22.5838 37.635 22.3948 38.1087 22.3991 38.6003C22.4033 39.0919 22.6005 39.5622 22.9482 39.9098C23.2958 40.2575 23.7661 40.4546 24.2577 40.4589C24.7493 40.4632 25.2229 40.2742 25.5766 39.9326L36.1834 29.3258C36.535 28.9742 36.7324 28.4973 36.7324 28.0001C36.7324 27.503 36.535 27.0261 36.1834 26.6745L25.5766 16.0677C25.225 15.7161 24.7481 15.5187 24.2509 15.5187C23.7538 15.5187 23.2769 15.7161 22.9253 16.0677Z" fill="white"/>
</svg>
