<svg width="56" height="56" viewBox="0 0 56 56" fill="none" xmlns="http://www.w3.org/2000/svg">
<circle cx="28" cy="28.0001" r="28" fill="#F6F7F9" fill-opacity="0.2"/>
<path d="M33.0747 16.0677C33.4262 16.4193 33.6237 16.8961 33.6237 17.3933C33.6237 17.8905 33.4262 18.3673 33.0747 18.7189L23.7934 28.0001L33.0747 37.2814C33.4162 37.635 33.6052 38.1087 33.6009 38.6003C33.5967 39.0919 33.3995 39.5622 33.0518 39.9098C32.7042 40.2575 32.2339 40.4546 31.7423 40.4589C31.2507 40.4632 30.7771 40.2742 30.4234 39.9326L19.8166 29.3258C19.465 28.9742 19.2676 28.4973 19.2676 28.0001C19.2676 27.503 19.465 27.0261 19.8166 26.6745L30.4234 16.0677C30.775 15.7161 31.2519 15.5187 31.7491 15.5187C32.2462 15.5187 32.7231 15.7161 33.0747 16.0677Z" fill="white"/>
</svg>
