<svg width="40" height="40" viewBox="0 0 40 40" fill="none" xmlns="http://www.w3.org/2000/svg">
<g clip-path="url(#clip0_395_4735)">
<path d="M18.2012 0.0782356C17.1074 0.187611 16.4199 0.304798 15.2324 0.601673C11.6934 1.46105 8.53711 3.25011 5.89648 5.89855C2.66992 9.13292 0.802734 12.9064 0.138672 17.5392C0.00585938 18.461 0.00585938 21.5392 0.138672 22.461C0.802734 27.1485 2.7168 31.0079 5.94336 34.1954C7.70117 35.9298 9.49023 37.1798 11.6387 38.1642C19.123 41.5939 27.8418 40.1173 33.8184 34.4142C38.4824 29.9689 40.7246 23.4298 39.7715 17.0704C39.4824 15.1642 39.334 14.7501 38.8262 14.461C38.4121 14.2345 38.1152 14.2579 37.2793 14.5782C36.5059 14.8751 36.1543 15.1173 35.9746 15.4767C35.8184 15.7657 35.8262 15.961 36.0059 16.8595C36.9512 21.5626 35.748 26.3985 32.6699 30.2579C32.4043 30.5939 32.1855 30.9376 32.1855 31.0157C32.1855 31.2814 32.5215 31.586 32.8105 31.586C33.0996 31.586 33.2559 31.4454 34.0449 30.3907C36.9199 26.5939 38.0918 21.4845 37.1777 16.7579C37.0996 16.3282 37.0293 15.9689 37.0293 15.961C37.0293 15.922 38.2246 15.4689 38.2559 15.5001C38.2793 15.5235 38.3496 15.7735 38.4043 16.0704C39.334 20.5001 38.6309 25.2501 36.4746 29.086C32.2637 36.5782 23.7715 40.2892 15.4668 38.2735C10.1543 36.9767 5.55273 33.2657 3.12305 28.3204C1.88867 25.8048 1.29492 23.4454 1.19336 20.6251C1.06055 16.8595 2.08398 13.1095 4.12305 9.92199C5.52148 7.7423 7.45117 5.77355 9.60742 4.33605C12.8496 2.17199 16.6777 1.07042 20.5449 1.19542C25.084 1.34386 29.0215 2.90636 32.5215 5.96105C33.0059 6.38292 33.2715 6.56261 33.4199 6.56261C33.5527 6.56261 33.8418 6.39074 34.2402 6.08605C34.5762 5.82824 34.8652 5.62511 34.8809 5.64074C34.9199 5.6798 35.3262 10.3048 35.2949 10.422C35.2793 10.5001 34.6777 10.3204 33.0215 9.73449C31.7793 9.29699 30.7637 8.90636 30.7559 8.85949C30.7559 8.82042 30.9902 8.60167 31.2949 8.37511C32.248 7.63292 32.2324 7.43761 31.1855 6.56261C28.7168 4.51574 25.7949 3.21105 22.5371 2.6798C21.3574 2.4923 18.748 2.4923 17.498 2.6798C15.6543 2.95324 14.0059 3.46886 12.2949 4.3048C10.6777 5.09386 8.51367 6.63292 8.4043 7.07042C8.31055 7.45324 8.76367 7.88292 9.11523 7.75792C9.19336 7.73449 9.48242 7.52355 9.76367 7.29699C10.6387 6.59386 11.7949 5.8673 12.8496 5.34386C18.3887 2.63292 24.834 3.25792 29.8184 6.98449C30.1777 7.2423 30.4668 7.47667 30.459 7.50011C30.459 7.52355 30.3027 7.65636 30.1074 7.8048C29.6777 8.13292 29.5293 8.39855 29.5293 8.8673C29.5293 9.29699 29.6777 9.6173 29.9746 9.82824C30.248 10.0157 35.0449 11.7189 35.3027 11.7189C35.584 11.7189 36.1074 11.4376 36.2871 11.1876C36.4277 11.0001 36.4434 10.8673 36.4277 10.0782C36.4199 9.58605 36.3262 8.28917 36.2246 7.20324C36.0684 5.52355 36.0215 5.20324 35.8809 5.01574C35.3809 4.34386 34.6934 4.27355 33.9512 4.82824C33.7168 5.00792 33.4902 5.15636 33.4512 5.15636C33.4199 5.15636 33.1934 4.9923 32.959 4.78917C30.0918 2.32824 26.6074 0.757923 22.7715 0.187611C21.834 0.0469856 19.123 -0.0155144 18.2012 0.0782356Z" fill="white"/>
<path d="M19.6523 5.16425L19.4492 5.3205V6.53144C19.4492 7.633 19.4648 7.75019 19.6055 7.89081C19.8008 8.08612 20.1836 8.09394 20.3789 7.89862C20.582 7.6955 20.6445 7.21112 20.6055 6.20331C20.582 5.40644 20.5664 5.36737 20.3633 5.18769C20.0977 4.96112 19.9258 4.95331 19.6523 5.16425Z" fill="white"/>
<path d="M12.4353 7.08601C12.1072 7.35944 12.1462 7.55476 12.6931 8.51569C12.9744 9.00788 13.2712 9.48444 13.3572 9.56257C13.6853 9.89851 14.2947 9.65632 14.2947 9.18757C14.2947 8.93757 13.365 7.23444 13.1306 7.05476C12.9509 6.91413 12.615 6.92976 12.4353 7.08601Z" fill="white"/>
<path d="M26.8672 7.05476C26.6328 7.23444 25.7031 8.93757 25.7031 9.18757C25.7031 9.65632 26.3125 9.89851 26.6406 9.56257C26.7266 9.48444 27.0234 9.00788 27.3047 8.51569C27.8516 7.55476 27.8906 7.35944 27.5625 7.08601C27.3828 6.92976 27.0469 6.91413 26.8672 7.05476Z" fill="white"/>
<path d="M6.95135 8.46116C6.67791 8.60179 5.3576 10.383 4.7951 11.383C1.27166 17.6252 1.86541 25.2424 6.30291 30.8908C6.5451 31.1955 7.1701 31.8674 7.68572 32.3908C9.63885 34.3362 11.8263 35.6877 14.4123 36.5549C18.9748 38.0705 23.5998 37.7424 27.8732 35.594C29.3263 34.8596 31.4357 33.3674 31.5295 33.0002C31.5998 32.7112 31.5295 32.4846 31.3107 32.3205C31.0295 32.1096 30.8498 32.1721 30.1935 32.7112C28.4357 34.1408 26.2013 35.258 23.9904 35.8205C22.5451 36.1877 21.7795 36.2737 20.0763 36.2815C17.3263 36.2893 15.2717 35.8283 12.842 34.6487C8.5451 32.5627 5.34197 28.6252 4.18572 23.9924C2.9826 19.1955 3.97478 14.2034 6.90447 10.3205C7.77166 9.1721 7.81072 9.11741 7.81072 8.96898C7.81072 8.7971 7.50603 8.46116 7.30291 8.40648C7.21697 8.38304 7.06072 8.40648 6.95135 8.46116Z" fill="white"/>
<path d="M7.28646 12.2656C6.97396 12.3906 6.84896 12.8672 7.05208 13.1328C7.22396 13.3594 8.95052 14.2969 9.19271 14.2969C9.65365 14.2969 9.89583 13.75 9.59115 13.4062C9.41146 13.2031 7.69271 12.1797 7.54427 12.1953C7.4974 12.1953 7.38021 12.2266 7.28646 12.2656Z" fill="white"/>
<path d="M31.4818 12.6953C30.4505 13.2812 30.1927 13.5156 30.2708 13.8203C30.3489 14.125 30.5364 14.2969 30.8021 14.2969C31.0443 14.2969 32.7708 13.3594 32.9427 13.1328C33.0833 12.9531 33.0677 12.6172 32.9114 12.4375C32.638 12.1094 32.4427 12.1484 31.4818 12.6953Z" fill="white"/>
<path d="M26.7174 12.5547C26.6549 12.5782 25.4049 13.7891 23.944 15.2422L21.2799 17.8985L20.8971 17.7266C20.0768 17.3672 18.8971 17.6016 18.2565 18.2657C17.5533 18.9844 17.3658 20.0938 17.7799 21.0078C18.0221 21.5625 18.4361 21.9688 19.0299 22.2422L19.4518 22.4297V26.0547V29.6797L19.6549 29.836C19.9283 30.0469 20.1002 30.0391 20.3658 29.8125L20.5846 29.625L20.608 26L20.6315 22.3828L21.0533 22.1953C22.1783 21.711 22.7643 20.211 22.2721 19.0938L22.1002 18.7188L24.7565 16.0547C26.4986 14.3125 27.4283 13.3282 27.4596 13.1875C27.5065 13.0157 27.4674 12.9297 27.2799 12.7344C27.0455 12.5 26.9518 12.4688 26.7174 12.5547ZM20.6549 18.8985C21.1236 19.1563 21.3658 19.7422 21.2486 20.2891C21.108 20.8907 20.6315 21.2657 19.9986 21.2657C18.483 21.2657 18.233 19.086 19.7096 18.75C20.0221 18.6797 20.358 18.7344 20.6549 18.8985Z" fill="white"/>
<path d="M5.16037 19.6563C4.94943 19.9297 4.95724 20.1016 5.1838 20.3672C5.36349 20.5782 5.40255 20.586 6.27755 20.6094C7.33224 20.6485 7.6838 20.5938 7.89474 20.3828C8.09005 20.1875 8.08224 19.8047 7.88693 19.6094C7.7463 19.4688 7.62912 19.4532 6.52755 19.4532H5.31662L5.16037 19.6563Z" fill="white"/>
<path d="M32.1075 19.6094C31.9122 19.8047 31.9044 20.1875 32.0997 20.3828C32.3106 20.5938 32.6622 20.6485 33.7169 20.6094C34.5919 20.586 34.6309 20.5782 34.8106 20.3672C35.0372 20.1016 35.045 19.9297 34.834 19.6563L34.6778 19.4532H33.4669C32.3653 19.4532 32.2481 19.4688 32.1075 19.6094Z" fill="white"/>
<path d="M8.04486 26.2266C7.55268 26.5078 7.10736 26.8047 7.05268 26.8672C6.91205 27.0469 6.92768 27.3828 7.09174 27.5625C7.35736 27.8906 7.55268 27.8516 8.51361 27.3047C9.54486 26.7187 9.80268 26.4844 9.72455 26.1797C9.5683 25.5469 9.20111 25.5547 8.04486 26.2266Z" fill="white"/>
<path d="M30.4427 25.8359C30.3802 25.9141 30.3021 26.0703 30.2708 26.1797C30.1927 26.4844 30.4505 26.7187 31.4818 27.3047C32.4427 27.8516 32.638 27.8906 32.9114 27.5625C33.0677 27.3828 33.0833 27.0469 32.9427 26.8672C32.888 26.7969 32.4427 26.5078 31.9505 26.2266C31.0052 25.6797 30.6693 25.5937 30.4427 25.8359Z" fill="white"/>
<path d="M13.4041 30.4065C13.2947 30.508 12.9744 30.9924 12.6931 31.4846C12.1462 32.4455 12.1072 32.6409 12.4353 32.9065C12.6775 33.1174 12.9978 33.0862 13.2166 32.8205C13.5603 32.4143 14.2947 31.0393 14.2947 30.8049C14.2947 30.344 13.7478 30.1018 13.4041 30.4065Z" fill="white"/>
<path d="M26.0938 30.2893C25.8594 30.3752 25.7031 30.5784 25.7031 30.8049C25.7031 31.0393 26.4375 32.4143 26.7812 32.8205C27 33.0862 27.3203 33.1174 27.5625 32.9065C27.8906 32.6409 27.8516 32.4455 27.3047 31.4846C26.6719 30.3674 26.4609 30.1565 26.0938 30.2893Z" fill="white"/>
<path d="M19.6055 32.1094C19.4648 32.25 19.4492 32.3672 19.4492 33.4688V34.6797L19.6523 34.836C19.9258 35.0469 20.0977 35.0391 20.3633 34.8125C20.5664 34.6328 20.582 34.5938 20.6055 33.7969C20.6445 32.7891 20.582 32.3047 20.3789 32.1016C20.1836 31.9063 19.8008 31.9141 19.6055 32.1094Z" fill="white"/>
</g>
<defs>
<clipPath id="clip0_395_4735">
<rect width="40" height="40" fill="white"/>
</clipPath>
</defs>
</svg>
