<svg width="40" height="40" viewBox="0 0 40 40" fill="none" xmlns="http://www.w3.org/2000/svg">
<path d="M22.8106 2.6251C21.9981 2.84385 21.3731 3.35947 21.0216 4.10166C20.9356 4.28916 20.7247 5.00791 20.545 5.71104C19.9513 8.08604 19.2403 9.9376 18.3497 11.4454C17.6856 12.5626 17.4435 12.8673 15.0685 15.547L12.9356 17.961L12.8106 17.7501C12.5685 17.3595 12.0528 16.961 11.6075 16.836C11.2403 16.7267 10.7403 16.711 8.18564 16.7345L5.19346 16.7579L4.76377 17.0001C4.29502 17.2579 3.88877 17.7735 3.74814 18.2657C3.63096 18.6876 3.63877 28.9923 3.75596 29.2501C3.88877 29.5313 4.23252 29.6563 4.52939 29.5313C4.66221 29.4767 4.80283 29.3673 4.84189 29.2892C4.88877 29.2032 4.92002 27.1173 4.92002 23.9142C4.92002 20.7032 4.95127 18.6017 4.99814 18.4845C5.03721 18.3751 5.18564 18.211 5.32627 18.1251C5.56846 17.9767 5.72471 17.9688 8.38096 17.9688C10.7247 17.9688 11.2169 17.9845 11.4044 18.086C11.8966 18.3438 11.8731 17.836 11.8731 27.1251C11.8731 35.4454 11.8731 35.5938 11.7169 35.8438C11.631 35.9845 11.4669 36.1329 11.3497 36.1798C11.2247 36.2267 10.0685 36.2501 8.27158 36.2345L5.38877 36.211L5.17783 35.9923L4.95908 35.7813L4.92002 33.4688L4.88096 31.1563L4.69346 31.0079C4.44346 30.8048 4.09189 30.8204 3.86533 31.0548L3.67002 31.2423V33.461C3.67002 36.0938 3.70908 36.297 4.29502 36.8829C4.91221 37.5001 5.00596 37.5079 8.56846 37.4845C11.5372 37.461 11.6075 37.461 11.9278 37.2892C12.3497 37.0626 12.7794 36.6095 12.9044 36.2813C12.9591 36.1329 13.0216 36.0157 13.045 36.0157C13.0685 36.0157 13.8028 36.1876 14.6778 36.4063C17.7794 37.1642 18.6466 37.2267 25.5997 37.2032C30.9435 37.1876 31.0919 37.1876 31.5138 37.0235C32.4122 36.6954 33.1075 35.7813 33.2403 34.7892C33.295 34.3595 33.131 33.547 32.9278 33.2267C32.8185 33.0626 32.8185 33.047 33.0216 33.0001C35.0372 32.5626 35.9513 30.336 34.8263 28.6329L34.5763 28.2579L34.7638 28.1329C35.4825 27.672 36.0528 26.8517 36.2481 26.0235C36.5138 24.8829 35.9747 23.4532 35.0138 22.7657L34.7091 22.547L35.0294 22.1485C35.9435 21.0313 36.0216 19.4845 35.2247 18.2892C34.8731 17.7657 34.4513 17.4063 33.8419 17.1251C33.4435 16.9376 33.2872 16.9142 32.381 16.8907C31.4591 16.8595 31.3419 16.8751 31.17 17.0157C30.92 17.2188 30.9122 17.6642 31.1544 17.9142C31.3106 18.0626 31.4356 18.086 32.2481 18.1251C32.9669 18.1642 33.2247 18.2032 33.4747 18.336C34.67 18.9688 34.8888 20.6017 33.8966 21.5392C33.4903 21.922 33.1075 22.047 32.17 22.1017C31.5216 22.1407 31.3028 22.1798 31.1935 22.2813C30.9981 22.4767 31.0216 22.9298 31.2325 23.1485C31.3966 23.3048 31.506 23.3204 32.5606 23.3595C33.8106 23.4063 33.9903 23.461 34.4435 23.9142C35.381 24.8517 35.2013 26.4298 34.0841 27.086C33.7403 27.2892 33.631 27.3048 32.67 27.3438C31.7403 27.3829 31.6153 27.4063 31.4669 27.5626C31.256 27.7657 31.2403 28.211 31.4278 28.422C31.5372 28.5392 31.7169 28.5782 32.2247 28.6173C32.9591 28.672 33.381 28.836 33.6935 29.211C34.3263 29.9688 34.0841 31.1485 33.2091 31.6173C32.8888 31.7813 32.7794 31.797 31.5294 31.797C30.4278 31.797 30.1544 31.8204 30.0138 31.922C29.7638 32.0938 29.6778 32.3673 29.7716 32.6563C29.881 32.9532 30.045 33.047 30.4825 33.047C31.5997 33.0548 32.3263 34.2345 31.8106 35.2032C31.6622 35.4845 31.1856 35.8517 30.92 35.8907C30.3497 35.9767 22.506 36.0157 20.7247 35.9376C17.7638 35.8126 17.3575 35.7579 14.7872 35.1407L13.1231 34.7345V27.1798V19.6173L15.5685 16.8751C16.9044 15.3595 18.256 13.797 18.5606 13.3829C19.9513 11.5313 20.9669 9.19541 21.7638 5.97666C22.0997 4.6251 22.1388 4.53135 22.4435 4.23447C23.3575 3.34385 25.0841 3.76572 25.6153 5.0001C26.0138 5.91416 26.0372 8.80479 25.6622 10.4454C25.5997 10.711 25.0919 12.1251 24.5294 13.5782C23.4278 16.461 23.3731 16.6876 23.67 17.2657C23.8731 17.6642 24.256 17.9454 24.7325 18.047C24.9747 18.1017 25.92 18.1251 27.2091 18.1095C29.2794 18.086 29.2794 18.086 29.4825 17.8985C29.7325 17.6642 29.7481 17.3595 29.5216 17.0782L29.3653 16.8751H27.1856C25.9903 16.8751 24.9591 16.8517 24.8888 16.8282C24.6388 16.7345 24.7169 16.4767 25.7247 13.9845C26.9591 10.9298 27.1388 10.1173 27.1388 7.69541C27.1388 5.72666 27.0528 5.01572 26.7169 4.32822C26.0685 2.99229 24.3106 2.22666 22.8106 2.6251Z" fill="white"/>
<path d="M7.72645 20.5781C6.64833 20.9609 6.17958 22.1797 6.70301 23.2109C7.41395 24.6172 9.35926 24.6172 10.0936 23.2109C10.4921 22.4531 10.3593 21.6797 9.72645 21.0547C9.17176 20.4922 8.43739 20.3203 7.72645 20.5781ZM8.86708 21.9141C9.14051 22.1797 9.12489 22.5234 8.83583 22.8203C8.59364 23.0625 8.37489 23.1016 8.10145 22.9531C7.47645 22.625 7.6952 21.7188 8.39833 21.7188C8.59364 21.7188 8.74208 21.7812 8.86708 21.9141Z" fill="white"/>
</svg>
