<svg width="40" height="40" viewBox="0 0 40 40" fill="none" xmlns="http://www.w3.org/2000/svg">
<path d="M7.14844 0.0781059C5.53125 0.406231 4.17969 1.73436 3.83594 3.34373C3.77344 3.64061 3.75 8.61717 3.75 21.2344C3.75 37.9687 3.75781 38.7265 3.89844 39.0234C4.07031 39.414 4.51562 39.8125 4.89844 39.9219C5.10938 39.9844 8.625 40 16.9219 39.9844L28.6484 39.9609L29.0234 39.7265C29.2969 39.5625 29.4609 39.375 29.6016 39.1015L29.8047 38.7187L29.8281 33.2265L29.8516 27.7344H32.4453C34.9844 27.7344 35.0547 27.7265 35.3906 27.5547C35.5781 27.4609 35.8438 27.25 35.9688 27.0859L36.2109 26.7812L36.2344 22.8047L36.2578 18.8281L36.0625 18.6328C35.8125 18.3828 35.5156 18.3828 35.2734 18.6328L35.0781 18.8203V22.6094C35.0781 26.2969 35.0703 26.4062 34.9219 26.4844C34.8281 26.539 33.9141 26.5547 32.2891 26.5469L29.8047 26.5234L29.7812 15.2734C29.7656 7.64841 29.7891 3.85154 29.8438 3.48436C29.9922 2.51561 30.5156 1.82811 31.3984 1.42186C32.0312 1.13279 32.9062 1.13279 33.5234 1.42967C34.0391 1.67967 34.625 2.27342 34.8672 2.79686L35.0391 3.16404L35.0547 9.92185C35.0703 13.6406 35.0938 16.7578 35.1172 16.8515C35.1719 17.0781 35.5625 17.2812 35.8203 17.2187C36.2734 17.1094 36.25 17.4297 36.25 10.0781C36.25 3.67185 36.2422 3.28904 36.1016 2.79686C35.7188 1.46092 34.7031 0.476543 33.3203 0.124981C32.9141 0.0156059 31.3984 -1.90735e-05 20.1562 0.00779343C13.1719 0.0156059 7.32031 0.0468559 7.14844 0.0781059ZM29.6094 1.21873C29.6094 1.24217 29.5078 1.39061 29.375 1.54686C28.9297 2.10936 28.75 2.64842 28.6719 3.64842C28.6328 4.16404 28.5938 12.0859 28.5938 21.5781V38.5859L28.4219 38.7031C28.2656 38.8125 27.0312 38.8281 16.7422 38.8281C5.33594 38.8281 5.23438 38.8281 5.07812 38.6719C4.92188 38.5156 4.92188 38.414 4.92188 21.2265C4.92188 2.62498 4.90625 3.53123 5.30469 2.74998C5.64844 2.07811 6.5625 1.41404 7.34375 1.25779C7.71875 1.18748 29.6094 1.14061 29.6094 1.21873Z" fill="white"/>
<path d="M8.78906 5.10154C8.05469 5.46092 7.66406 6.09373 7.65625 6.92185C7.65625 8.09373 8.63281 8.99217 9.80469 8.8906C10.5625 8.8281 11.1328 8.40623 11.4688 7.67185C11.7969 6.9531 11.625 6.08592 11.0391 5.49998C10.6563 5.10935 10.3359 4.97654 9.72656 4.94529C9.26563 4.92185 9.11719 4.94529 8.78906 5.10154ZM10.1563 6.30467C10.4922 6.60935 10.5391 6.98435 10.2969 7.34373C9.83594 8.02342 8.82031 7.71092 8.82813 6.8906C8.84375 6.19529 9.64063 5.84373 10.1563 6.30467Z" fill="white"/>
<path d="M13.8672 6.52344C13.7578 6.625 13.6719 6.80469 13.6719 6.91406C13.6719 7.02344 13.7578 7.20312 13.8672 7.30469C14.0391 7.48438 14.1094 7.5 14.8203 7.5C15.6406 7.49219 15.8047 7.4375 15.9219 7.10156C16.0078 6.88281 15.9141 6.58594 15.7188 6.4375C15.6328 6.36719 15.3281 6.33594 14.8203 6.32812C14.1094 6.32812 14.0391 6.34375 13.8672 6.52344Z" fill="white"/>
<path d="M17.3598 6.50781C17.1176 6.76562 17.1332 7.13281 17.391 7.33594C17.5942 7.5 17.6723 7.5 21.766 7.5C24.0551 7.5 25.9848 7.47656 26.0551 7.45312C26.2426 7.375 26.4145 6.98438 26.3598 6.75781C26.2504 6.32031 26.3442 6.32812 21.7582 6.32812H17.5238L17.3598 6.50781Z" fill="white"/>
<path d="M9.00522 11.5858C7.9349 11.9999 7.42709 13.0468 7.73959 14.1718C7.85678 14.6014 8.54428 15.2733 8.98959 15.3905C10.099 15.6874 11.1771 15.1639 11.5208 14.1483C11.8412 13.203 11.4193 12.1718 10.5052 11.703C10.138 11.5077 9.35678 11.4452 9.00522 11.5858ZM9.96615 12.7733C10.2865 12.9061 10.5052 13.328 10.4271 13.6796C10.3568 14.0077 9.97397 14.2968 9.60678 14.2968C9.3724 14.2968 9.2474 14.2421 9.06772 14.0546C8.75522 13.7421 8.73178 13.3202 9.02084 12.9764C9.19272 12.7733 9.29428 12.7264 9.63022 12.6639C9.66147 12.6639 9.8099 12.7108 9.96615 12.7733Z" fill="white"/>
<path d="M14.0094 12.9688C13.65 13.1172 13.5641 13.6172 13.8531 13.8906L14.0328 14.0625H20.0563C25.6891 14.0625 26.0797 14.0547 26.1891 13.9219C26.4781 13.6016 26.4078 13.1406 26.0406 12.9766C25.8141 12.8672 14.275 12.8672 14.0094 12.9688Z" fill="white"/>
<path d="M9.33789 18.1016C8.64258 18.2578 8.05664 18.6953 7.80664 19.2578C7.61133 19.6719 7.61133 20.4766 7.80664 20.8985C8.35352 22.1094 9.97852 22.461 10.9473 21.586C11.4395 21.1406 11.5957 20.7656 11.6035 20.0781C11.6035 19.586 11.5723 19.4375 11.3926 19.1406C11.1426 18.711 10.9238 18.5 10.5098 18.2969C10.1816 18.1328 9.61133 18.0391 9.33789 18.1016ZM10.1816 19.4922C10.8145 20.1328 10.1582 21.1719 9.33789 20.8281C8.79102 20.5938 8.6582 19.9688 9.05664 19.5391C9.36133 19.211 9.87695 19.1953 10.1816 19.4922Z" fill="white"/>
<path d="M14.1166 19.5312C13.5385 19.7109 13.5151 20.4218 14.0697 20.6172C14.4057 20.7343 22.1401 20.7343 22.476 20.625C22.7026 20.5468 22.8901 20.2734 22.8901 20.039C22.8901 19.9765 22.8041 19.8281 22.7026 19.7109L22.5151 19.4922L18.4213 19.4765C16.1791 19.4687 14.2338 19.4922 14.1166 19.5312Z" fill="white"/>
<path d="M24.5547 19.4999C24.3672 19.5468 24.0625 19.8749 24.0625 20.0468C24.0625 20.1014 24.1016 20.2421 24.1562 20.3514C24.2734 20.6171 24.6797 20.7264 25.4219 20.6874C26.1094 20.6561 26.3516 20.4921 26.3516 20.078C26.3516 19.6483 26.1172 19.5077 25.375 19.4843C25.0156 19.4764 24.6484 19.4843 24.5547 19.4999Z" fill="white"/>
<path d="M9.24219 24.6171C8.77344 24.703 8.5 24.8671 8.13281 25.2811C7.77344 25.6952 7.65625 26.0233 7.65625 26.6405C7.66406 27.3749 8.10156 28.0624 8.79688 28.3983C9.23438 28.6171 10.0859 28.6093 10.5078 28.3827C11.4297 27.8905 11.8438 26.8749 11.5156 25.9218C11.2109 25.0077 10.2188 24.4374 9.24219 24.6171ZM10.1797 25.9843C10.7656 26.5624 10.2578 27.5311 9.45312 27.3749C9.11719 27.3046 8.82812 26.9374 8.82812 26.5624C8.82812 25.8827 9.70312 25.5077 10.1797 25.9843Z" fill="white"/>
<path d="M13.8433 26.1953C13.5621 26.4922 13.6246 26.8828 13.9918 27.0703C14.1793 27.1719 15.0699 27.1875 19.984 27.1875C23.8121 27.1875 25.8355 27.1562 25.9918 27.1094C26.398 26.9609 26.4918 26.5 26.1871 26.1484C26.0777 26.0234 25.6871 26.0156 20.0386 26.0156H14.0074L13.8433 26.1953Z" fill="white"/>
<path d="M8.78979 31.3594C7.20385 32.1094 7.2976 34.4141 8.93823 35.0391C9.36791 35.2032 10.1414 35.1719 10.532 34.9688C10.8757 34.7891 11.2664 34.3829 11.4539 34.0157C11.657 33.5938 11.657 32.7344 11.446 32.3047C10.9617 31.3282 9.75854 30.8985 8.78979 31.3594ZM10.2273 32.6094C10.5085 32.8907 10.5164 33.4141 10.2429 33.7032C9.7351 34.2422 8.82885 33.8985 8.82885 33.1641C8.82885 32.4376 9.70385 32.0938 10.2273 32.6094Z" fill="white"/>
<path d="M13.8672 32.7734C13.7578 32.875 13.6719 33.0547 13.6719 33.1641C13.6719 33.2734 13.7578 33.4531 13.8672 33.5547L14.0547 33.75H19.9922C23.2578 33.75 25.9844 33.7266 26.0547 33.7031C26.1172 33.6719 26.2344 33.5469 26.2969 33.4219C26.3984 33.2266 26.3984 33.1484 26.3203 32.9609C26.2734 32.8281 26.1641 32.6953 26.0859 32.6562C26 32.6094 23.6562 32.5781 20 32.5781H14.0547L13.8672 32.7734Z" fill="white"/>
</svg>
