<svg width="20" height="21" viewBox="0 0 20 21" fill="none" xmlns="http://www.w3.org/2000/svg">
<path d="M4.0625 3.625C3.31658 3.625 2.60121 3.92132 2.07376 4.44876C1.54632 4.97621 1.25 5.69158 1.25 6.4375V14.5625C1.25 15.3084 1.54632 16.0238 2.07376 16.5512C2.60121 17.0787 3.31658 17.375 4.0625 17.375H15.9375C16.6834 17.375 17.3988 17.0787 17.9262 16.5512C18.4537 16.0238 18.75 15.3084 18.75 14.5625V6.4375C18.75 5.69158 18.4537 4.97621 17.9262 4.44876C17.3988 3.92132 16.6834 3.625 15.9375 3.625H4.0625ZM17.5 7.00187L10 11.04L2.5 7.00187V6.4375C2.5 6.0231 2.66462 5.62567 2.95765 5.33265C3.25067 5.03962 3.6481 4.875 4.0625 4.875H15.9375C16.3519 4.875 16.7493 5.03962 17.0424 5.33265C17.3354 5.62567 17.5 6.0231 17.5 6.4375V7.00187ZM2.5 8.42125L9.70375 12.3006C9.7948 12.3496 9.89659 12.3753 10 12.3753C10.1034 12.3753 10.2052 12.3496 10.2963 12.3006L17.5 8.42125V14.5625C17.5 14.9769 17.3354 15.3743 17.0424 15.6674C16.7493 15.9604 16.3519 16.125 15.9375 16.125H4.0625C3.6481 16.125 3.25067 15.9604 2.95765 15.6674C2.66462 15.3743 2.5 14.9769 2.5 14.5625V8.42125Z" fill="url(#paint0_linear_424_5619)"/>
<defs>
<linearGradient id="paint0_linear_424_5619" x1="10" y1="3.625" x2="10" y2="17.375" gradientUnits="userSpaceOnUse">
<stop stop-color="#5FD5CA"/>
<stop offset="1" stop-color="#629BE2"/>
</linearGradient>
</defs>
</svg>
