<svg width="40" height="40" viewBox="0 0 40 40" fill="none" xmlns="http://www.w3.org/2000/svg">
<g clip-path="url(#clip0_395_4618)">
<path d="M26.3828 0.109375C26.3047 0.171875 26.0469 0.679688 25.7969 1.25C25.5469 1.82031 25.2969 2.32031 25.2344 2.35156C25.1719 2.39062 24.7812 2.5625 24.3672 2.73438L23.6094 3.05469L22.5312 2.61719C21.9297 2.375 21.375 2.20312 21.2891 2.21875C21.2031 2.24219 20.5781 2.82031 19.9062 3.5C18.9766 4.42969 18.6719 4.78125 18.6719 4.92969C18.6797 5.03125 18.8828 5.625 19.1328 6.24219L19.5859 7.35938L19.3438 7.92969L19.1016 8.5L18.5156 8.55469C16.0391 8.76562 14.3047 9.32031 12.4766 10.4922C11.8281 10.9062 11.6719 11.1172 11.7969 11.4375C11.875 11.6484 12.1562 11.875 12.3438 11.875C12.4141 11.875 12.7344 11.7031 13.0625 11.4922C14.2656 10.7109 15.4688 10.2109 16.8984 9.91406C18.0391 9.67188 19.9375 9.67188 21.0938 9.91406C25.5078 10.8438 28.8828 13.9453 29.9531 18.0625C30.9141 21.7734 29.8672 25.8047 27.2031 28.6094L26.5234 29.3203L26.4844 30.5469L26.4453 31.7734L25.4375 31.3516C24.2734 30.8594 24.2734 30.8594 23.2578 31.2891C21.4219 32.0547 19.1406 32.2812 17.0859 31.9062C16.4297 31.7891 14.9219 31.3438 14.9219 31.2734C14.9219 31.25 15.0625 31.0781 15.2344 30.8906C15.3984 30.7109 15.5625 30.4766 15.5859 30.375C15.6406 30.1719 14.8672 28.2109 14.6406 27.9531C14.5234 27.8359 14.3828 27.8125 13.7109 27.8125H12.9219L12.5625 27.3984L12.2031 26.9844L12.1797 26.2266C12.1562 25.5938 12.125 25.4453 11.9844 25.3125C11.8125 25.1406 9.89844 24.3047 9.66406 24.2969C9.58594 24.2969 9.35156 24.4531 9.14844 24.6484C8.94531 24.8438 8.75781 25 8.73438 25C8.66406 25 8.44531 24.3594 8.25 23.5781C7.42188 20.3281 8.24219 16.5703 10.3438 13.9531C10.8281 13.3516 10.8906 13.0938 10.6094 12.8359C10.2891 12.5391 10.1172 12.5469 9.78906 12.8438C9.35156 13.2344 8.64844 14.25 8.16406 15.1719C6.86719 17.6719 6.4375 20.7031 7 23.4219C7.10938 23.9531 7.38281 24.8828 7.53125 25.25C7.57031 25.3359 7.54688 25.3906 7.44531 25.4062C7.35156 25.4297 7.10938 25.25 6.71094 24.8672C6.38281 24.5547 6.05469 24.2969 5.98438 24.2969C5.91406 24.2969 5.35938 24.5 4.75781 24.7422C3.4375 25.2812 3.4375 25.2812 3.4375 26.3828V27.1562L3.10156 27.4844L2.76562 27.8125H1.94531C1.1875 27.8125 1.10938 27.8281 0.960938 27.9844C0.773438 28.1953 0 30.0703 0 30.3203C0 30.4219 0.21875 30.7109 0.585938 31.0859L1.17188 31.6875V32.1484V32.6016L0.585938 33.2109C0.210938 33.6094 0 33.8906 0 34C0 34.2891 0.867188 36.3281 1.02344 36.4141C1.10156 36.4531 1.51562 36.5078 1.92969 36.5312L2.69531 36.5781L3.07031 36.9375L3.4375 37.2969V38.0078C3.4375 38.4062 3.48438 38.7891 3.53906 38.9062C3.60938 39.0469 3.90625 39.2109 4.6875 39.5469C5.26562 39.7891 5.82812 39.9922 5.92969 40C6.05469 40 6.28906 39.8203 6.67188 39.4531L7.24219 38.9062H7.78125H8.32031L8.92969 39.4531C9.26562 39.7578 9.59375 40 9.67188 40C9.92969 40 11.9609 39.1172 12.0391 38.9688C12.0859 38.8828 12.1406 38.4375 12.1641 37.9688L12.2109 37.1172L12.4922 36.8516C12.7734 36.5781 12.7734 36.5781 13.6094 36.5469C14.3281 36.5234 14.4766 36.5 14.6094 36.3594C14.7734 36.1953 15.625 34.2344 15.625 34.0234C15.625 33.9609 15.3438 33.6016 15.0078 33.2344C14.6641 32.8594 14.4062 32.5078 14.4219 32.4609C14.4531 32.3906 14.6094 32.4219 14.9844 32.5547C17.6953 33.5391 20.9609 33.4766 23.6797 32.3906C23.9609 32.2812 24.2422 32.1875 24.3047 32.1875C24.3594 32.1875 25 32.4375 25.7188 32.7344C27.6562 33.5469 27.6562 33.5469 27.6562 31.3516V29.8438L28.2344 29.2109C30.0078 27.2891 31.125 24.7969 31.4141 22.0859L31.5078 21.1953L32.1406 20.9062C32.4922 20.75 32.8125 20.625 32.8594 20.625C32.9062 20.625 33.375 20.8047 33.9062 21.0156C34.4375 21.2344 34.9766 21.4062 35.1094 21.4062C35.3047 21.4062 35.5312 21.2188 36.5312 20.2188C37.2969 19.4688 37.7422 18.9609 37.7734 18.8281C37.8047 18.6719 37.6953 18.2969 37.375 17.5C37.125 16.8828 36.9297 16.3438 36.9375 16.2969C36.9375 16.25 37.0625 15.8984 37.2109 15.5156L37.4844 14.8203L38.5625 14.3594C39.1641 14.1016 39.7266 13.8203 39.8281 13.7344C40 13.5703 40 13.5312 40 11.8203C40 10.25 39.9844 10.0625 39.8594 9.9375C39.7812 9.85938 39.2031 9.57812 38.5703 9.30469C37.9375 9.03125 37.4219 8.76562 37.4219 8.71094C37.4219 8.64844 37.3047 8.32031 37.1562 7.97656L36.8906 7.34375L37.3516 6.19531C37.6016 5.5625 37.8125 4.97656 37.8125 4.89062C37.8125 4.71094 35.5312 2.36719 35.2344 2.25781C35.0781 2.19531 34.8438 2.25781 33.9375 2.625L32.8359 3.07031L32.3359 2.83594C32.0625 2.70312 31.6797 2.53906 31.4844 2.46875L31.1328 2.33594L30.7031 1.32031C30.4688 0.765625 30.2031 0.242188 30.1172 0.15625C29.9609 0.0078125 29.8359 0 28.2344 0C26.9219 0.0078125 26.4922 0.03125 26.3828 0.109375ZM29.7812 2.14844C30 2.66406 30.2266 3.14844 30.2891 3.21875C30.3594 3.28906 30.6406 3.42969 30.9297 3.52344C31.2109 3.61719 31.7188 3.82812 32.0469 3.99219C32.3828 4.16406 32.7109 4.29688 32.7891 4.29688C32.8672 4.29688 33.375 4.11719 33.9297 3.89062L34.9219 3.48438L35.7031 4.25781C36.1328 4.6875 36.4844 5.07812 36.4844 5.11719C36.4844 5.16406 36.3047 5.64062 36.0859 6.17969C35.875 6.71094 35.6953 7.23438 35.6875 7.34375C35.6875 7.45312 35.7891 7.76562 35.9141 8.04688C36.0469 8.32812 36.2266 8.78906 36.3203 9.07812C36.4141 9.35938 36.5391 9.63281 36.5938 9.6875C36.6562 9.73438 37.1719 9.97656 37.7422 10.2188L38.7891 10.6719V11.8359V12.9922L37.7656 13.4297C37.2031 13.6719 36.6875 13.9141 36.625 13.9688C36.5547 14.0234 36.4062 14.3359 36.2891 14.6719C36.1719 15 35.9922 15.4375 35.8906 15.6406C35.7891 15.8438 35.7031 16.1172 35.7031 16.25C35.7031 16.375 35.8828 16.9219 36.0938 17.4609C36.3125 18 36.4844 18.4844 36.4844 18.5391C36.4844 18.5938 36.1406 18.9844 35.7109 19.4062L34.9453 20.1719L33.9531 19.7734C33.4141 19.5547 32.8828 19.375 32.7734 19.375C32.6641 19.375 32.3359 19.5 32.0391 19.6484C31.75 19.7969 31.4844 19.9219 31.4688 19.9219C31.4453 19.9219 31.3984 19.6719 31.3672 19.3594C31.3281 18.8984 31.0547 17.6797 30.8203 16.9141C30.7812 16.7891 30.8672 16.6953 31.2812 16.4219C32.3203 15.7422 33.1328 14.6328 33.5234 13.3594C33.6719 12.8828 33.7109 12.6016 33.7031 11.8359C33.7031 10.5781 33.5 9.84375 32.8516 8.82812C31.8594 7.26562 30.0859 6.32812 28.1406 6.32812C26.25 6.32812 24.5 7.32812 23.5469 8.94531L23.3594 9.27344L22.6328 9.0625C22.2422 8.94531 21.5625 8.78906 21.1328 8.71094C20.7031 8.64062 20.3438 8.57812 20.3359 8.57031C20.3359 8.5625 20.4297 8.32812 20.5547 8.05469C20.6797 7.78125 20.7812 7.47656 20.7812 7.375C20.7812 7.26562 20.5938 6.71875 20.3594 6.14062L19.9453 5.09375L20.75 4.28906L21.5625 3.48438L22.5547 3.89062C23.1094 4.11719 23.6172 4.29688 23.6953 4.29688C23.7656 4.29688 24.1094 4.15625 24.4453 3.99219C24.7812 3.82031 25.2891 3.60156 25.5781 3.51562C25.8984 3.41406 26.1406 3.28125 26.2109 3.17188C26.3047 3.03125 26.5469 2.48438 26.9922 1.42188L27.1016 1.16406L28.25 1.1875L29.3906 1.21094L29.7812 2.14844ZM29.5703 7.6875C30.3125 7.92188 30.8203 8.25 31.3672 8.84375C32.1641 9.70312 32.5312 10.6797 32.5312 11.9141C32.5234 13.0156 32.2656 13.7422 31.5781 14.6016C31.2969 14.9531 30.4922 15.625 30.3516 15.625C30.3125 15.625 30.1172 15.3281 29.9297 14.9609C28.9531 13.0859 26.9922 11.1172 25.0625 10.0781C24.7266 9.89844 24.4531 9.73438 24.4531 9.71094C24.4531 9.60938 24.9531 8.98438 25.2891 8.66406C25.7812 8.17969 26.2031 7.92969 26.8906 7.69531C27.6875 7.42969 28.7344 7.42188 29.5703 7.6875ZM6.32031 26.1172L6.83594 26.6172L7.84375 26.5938L8.84375 26.5781L9.34375 26.0859L9.84375 25.5938L10.4062 25.8281L10.9766 26.0547L11.0156 26.8125L11.0547 27.5703L11.6406 28.1875C11.9609 28.5234 12.2812 28.8281 12.3438 28.8672C12.4062 28.8984 12.7812 28.9453 13.1719 28.9609L13.8906 29.0078L14.1016 29.5469C14.3438 30.1562 14.3672 30.0859 13.6875 30.7891L13.2656 31.2266L13.25 32.0781C13.2344 32.5547 13.2578 33 13.3047 33.0859C13.3516 33.1719 13.5938 33.4609 13.8516 33.7344L14.3281 34.2188L14.0938 34.7891L13.8594 35.3516L13.0312 35.3906L12.2109 35.4297L11.6172 36.0547L11.0234 36.6797L11.0156 37.4453V38.2109L10.5078 38.4453C10.2344 38.5703 9.96094 38.6719 9.89844 38.6719C9.84375 38.6719 9.625 38.4922 9.41406 38.2734C8.84375 37.6875 8.78125 37.6719 7.67969 37.7266L6.71875 37.7734L6.24219 38.25L5.76562 38.7266L5.1875 38.4844L4.60938 38.25V37.5312V36.8203L3.91406 36.1016L3.21875 35.3906H2.5H1.78906L1.55469 34.8828C1.42969 34.6094 1.32812 34.3203 1.32812 34.25C1.32812 34.1797 1.55469 33.8906 1.82812 33.6016L2.33594 33.0859L2.35156 32.1641L2.375 31.25L1.85156 30.7188C1.5625 30.4297 1.32812 30.1484 1.32812 30.0938C1.32812 30.0469 1.41406 29.7812 1.53125 29.5L1.72656 29.0078L2.51562 28.9531C2.95312 28.9219 3.35156 28.875 3.39062 28.8438C3.4375 28.8125 3.72656 28.5312 4.02344 28.2188L4.57031 27.6406L4.60938 26.8516L4.64844 26.0625L5.15625 25.8438C5.4375 25.7266 5.69531 25.625 5.73438 25.625C5.77344 25.625 6.03906 25.8438 6.32031 26.1172Z" fill="white"/>
<path d="M6.92164 28.4061C5.56226 28.7343 4.37476 29.9139 4.07008 31.2499C3.85914 32.1483 4.03101 33.328 4.47633 34.0624C4.95289 34.8593 5.72633 35.5077 6.53883 35.7968C7.40601 36.1093 8.79664 36.0468 9.1482 35.6952C9.37476 35.4686 9.32008 35.0233 9.04664 34.8202C8.85914 34.6796 8.80445 34.6796 8.43726 34.7655C7.24976 35.0546 5.99976 34.4686 5.41383 33.3436C5.21851 32.9764 5.19508 32.8436 5.19508 32.1874C5.19508 31.5468 5.22633 31.3827 5.3982 31.0155C5.65601 30.4764 6.15601 29.9764 6.71851 29.7108C7.3357 29.4061 8.2107 29.4061 8.8357 29.6952C10.0388 30.2577 10.7029 31.5702 10.3982 32.7811C10.281 33.2343 10.3826 33.5389 10.6951 33.6718C11.2263 33.8905 11.5466 33.4452 11.617 32.4218C11.7029 31.2499 11.2888 30.2108 10.4373 29.3827C9.46851 28.453 8.18726 28.1014 6.92164 28.4061Z" fill="white"/>
<path d="M17.6641 1.84381C17.5703 1.961 17.5 2.10944 17.5 2.18756C17.5 2.26569 17.5703 2.41412 17.6641 2.53131C17.9844 2.93756 18.6719 2.711 18.6719 2.18756C18.6719 1.66412 17.9844 1.43756 17.6641 1.84381Z" fill="white"/>
<path d="M14.6097 2.26562C14.2581 2.61719 14.5238 3.20312 15.0238 3.20312C15.5003 3.20312 15.7581 2.6875 15.4691 2.32031C15.2581 2.05469 14.8441 2.03125 14.6097 2.26562Z" fill="white"/>
<path d="M11.6797 3.24206C11.5703 3.34363 11.4844 3.52331 11.4844 3.63269C11.4844 4.0155 11.9375 4.31238 12.3047 4.17175C12.4453 4.11706 12.6562 3.74206 12.6562 3.55456C12.6562 3.35925 12.2969 3.04675 12.0703 3.04675C11.9609 3.04675 11.7812 3.13269 11.6797 3.24206Z" fill="white"/>
<path d="M8.92266 4.71093C8.73516 4.90624 8.70391 5.15624 8.82891 5.39062C9.03984 5.78124 9.61016 5.77343 9.80547 5.39062C9.96953 5.07812 9.95391 4.94531 9.72734 4.72656C9.48516 4.47656 9.14922 4.46874 8.92266 4.71093Z" fill="white"/>
<path d="M6.47846 6.63279C6.28314 6.8281 6.24408 6.92185 6.28314 7.09373C6.39252 7.54685 6.95502 7.73435 7.26752 7.42185C7.58002 7.10935 7.39252 6.54685 6.93939 6.43748C6.76752 6.39842 6.67377 6.43748 6.47846 6.63279Z" fill="white"/>
<path d="M4.35242 8.88281C3.99305 9.28125 4.24305 9.86719 4.76649 9.86719C5.25086 9.86719 5.50086 9.25 5.15711 8.90625C4.9618 8.71094 4.5243 8.70312 4.35242 8.88281Z" fill="white"/>
<path d="M2.70342 11.4922C2.30499 11.8047 2.53155 12.5 3.03936 12.5C3.63311 12.4922 3.84405 11.6562 3.3128 11.4141C3.03936 11.2891 2.94561 11.3047 2.70342 11.4922Z" fill="white"/>
<path d="M17.9951 13.1642C17.2217 13.3048 16.7139 13.4767 15.9248 13.8829C14.0889 14.8204 12.792 16.5704 12.4248 18.5939C12.3389 19.047 12.2998 19.1329 11.917 19.4923C10.3857 20.9689 10.7998 23.4611 12.7217 24.3595C13.1201 24.547 13.2607 24.5704 14.0029 24.5704C14.9404 24.5704 15.1357 24.4923 15.4092 23.9845C15.542 23.7345 15.5498 23.5392 15.5342 21.5861C15.5107 19.5861 15.5029 19.4532 15.3467 19.2501C15.0342 18.8282 14.7998 18.7189 14.1826 18.6876L13.5967 18.6564L13.6435 18.4454C13.8467 17.5939 14.5889 16.3439 15.2607 15.7267C17.4014 13.7579 20.831 13.7579 22.9326 15.7189C23.5967 16.3439 24.1123 17.1173 24.4092 17.9532C24.5185 18.2657 24.6123 18.5548 24.6123 18.5861C24.6123 18.6251 24.3545 18.6642 24.042 18.6876C23.417 18.7267 23.1514 18.8517 22.8701 19.2501C22.706 19.4845 22.6982 19.5704 22.6748 21.547C22.6514 23.4923 22.6592 23.6173 22.8076 23.9376C23.0498 24.4298 23.4248 24.6095 24.1826 24.6095H24.792L24.7373 24.9298C24.6279 25.6173 24.1904 26.2189 23.581 26.5314C23.1045 26.7736 22.9639 26.7657 22.7764 26.4689C22.3623 25.8282 21.6748 25.5704 20.5107 25.6486C19.7295 25.6954 19.292 25.8673 18.956 26.2657C18.2295 27.1095 18.5029 28.422 19.5029 28.8829C19.9092 29.0626 19.9951 29.0782 20.9326 29.047C21.8701 29.0236 21.9482 29.0079 22.2607 28.8048C22.4404 28.6798 22.6904 28.4298 22.7998 28.2423C22.9795 27.9611 23.0576 27.8986 23.3076 27.8673C23.7607 27.8048 24.4014 27.4532 24.8857 27.0157C25.542 26.422 25.9404 25.4689 25.9404 24.5001C25.9404 24.2189 25.9873 24.1329 26.331 23.797C27.2685 22.8986 27.5107 21.5079 26.9482 20.3282C26.8467 20.1251 26.5654 19.7579 26.3154 19.5157C26.0654 19.2657 25.8623 19.0001 25.8623 18.922C25.8623 18.6017 25.5342 17.5079 25.2764 16.9611C24.7217 15.797 23.7764 14.7423 22.6514 14.0392C21.2842 13.1876 19.6045 12.8673 17.9951 13.1642ZM14.3779 21.6407V23.4376H14.0107C12.9092 23.4376 12.167 22.7267 12.1592 21.6798C12.1592 20.6017 12.917 19.8673 14.0498 19.8517L14.3779 19.8439V21.6407ZM24.7998 19.9532C25.792 20.2579 26.3154 21.2579 25.9873 22.2423C25.7451 22.9689 25.0654 23.4376 24.2607 23.4376H23.831V21.6407V19.8439H24.1279C24.2998 19.8439 24.5967 19.8907 24.7998 19.9532ZM21.7139 26.9845C21.9248 27.172 21.9248 27.5314 21.7217 27.7345C21.5889 27.8673 21.4639 27.8907 20.792 27.8907C20.1904 27.8907 19.9873 27.8595 19.8935 27.7657C19.6045 27.4845 19.6748 27.0236 20.0264 26.8751C20.1201 26.8282 20.5029 26.8048 20.8701 26.8204C21.4092 26.8361 21.581 26.8673 21.7139 26.9845Z" fill="white"/>
<path d="M1.42207 14.3985C1.19551 14.6407 1.20332 14.961 1.44551 15.1954C1.66426 15.422 1.79707 15.4376 2.10176 15.2735C2.47676 15.086 2.53145 14.711 2.22676 14.4141C1.98457 14.1641 1.64863 14.1563 1.42207 14.3985Z" fill="white"/>
<path d="M0.703125 17.4218C0.5 17.6249 0.5 18.0546 0.703125 18.2421C1.0625 18.5702 1.66406 18.2968 1.66406 17.8202C1.66406 17.3202 1.05469 17.0702 0.703125 17.4218Z" fill="white"/>
<path d="M0.657339 20.4218C0.274527 20.5859 0.204214 20.9375 0.477652 21.2812C0.688589 21.5468 1.07921 21.5625 1.31359 21.3047C1.59484 21.0078 1.53234 20.6172 1.16515 20.4297C0.907339 20.289 0.962027 20.289 0.657339 20.4218Z" fill="white"/>
<path d="M37.3138 22.3517C36.7747 22.7735 37.3607 23.6017 37.9779 23.2735C38.3529 23.0782 38.3216 22.4532 37.9232 22.2735C37.6497 22.1485 37.5482 22.1642 37.3138 22.3517Z" fill="white"/>
<path d="M0.820312 23.6328C0.710938 23.7344 0.625 23.9141 0.625 24.0234C0.625 24.2812 0.953125 24.6094 1.21094 24.6094C1.46875 24.6094 1.79688 24.2812 1.79688 24.0234C1.79688 23.7656 1.46875 23.4375 1.21094 23.4375C1.10156 23.4375 0.921875 23.5234 0.820312 23.6328Z" fill="white"/>
<path d="M36.688 25.3984C36.2974 25.7031 36.5084 26.4062 36.9849 26.4062C37.2818 26.4062 37.4224 26.3281 37.5396 26.0859C37.6802 25.8203 37.6021 25.5469 37.3287 25.3594C37.0943 25.1953 36.938 25.2031 36.688 25.3984Z" fill="white"/>
<path d="M35.6562 28.2188C35.4844 28.2969 35.3125 28.5859 35.3125 28.7812C35.3125 29.0156 35.6328 29.2969 35.8906 29.2969C36.5078 29.2969 36.7109 28.5156 36.1641 28.2422C35.9141 28.1094 35.8828 28.1094 35.6562 28.2188Z" fill="white"/>
<path d="M33.8809 30.9999C33.7012 31.1952 33.709 31.664 33.8887 31.8202C34.0684 31.9843 34.4434 31.9921 34.67 31.8281C34.8887 31.6718 34.9122 31.1796 34.7012 30.9921C34.5059 30.8124 34.0372 30.8202 33.8809 30.9999Z" fill="white"/>
<path d="M31.8802 33.3436C31.6223 33.5468 31.638 33.9608 31.9036 34.1952C32.1614 34.4139 32.3411 34.4218 32.6067 34.2108C33.013 33.8905 32.7864 33.203 32.2708 33.203C32.1458 33.203 31.9661 33.2655 31.8802 33.3436Z" fill="white"/>
<path d="M29.5013 35.3204C28.9622 35.7423 29.5482 36.5704 30.1654 36.2423C30.5404 36.047 30.5091 35.422 30.1107 35.2423C29.8372 35.1173 29.7357 35.1329 29.5013 35.3204Z" fill="white"/>
<path d="M26.7578 36.9141C26.6484 37.0156 26.5625 37.1953 26.5625 37.3047C26.5625 37.5625 26.8828 37.8906 27.1328 37.8906C27.4297 37.8906 27.7344 37.6094 27.7344 37.3359C27.7344 37.0469 27.4219 36.7188 27.1484 36.7188C27.0391 36.7188 26.8594 36.8047 26.7578 36.9141Z" fill="white"/>
<path d="M23.8438 37.9922C23.7422 38.0938 23.6719 38.2735 23.6719 38.4141C23.6719 39.0078 24.5312 39.1485 24.7656 38.6016C25 38.0235 24.2656 37.5391 23.8438 37.9922Z" fill="white"/>
<path d="M14.5363 38.172C14.3253 38.4376 14.3331 38.6173 14.5519 38.8595C14.9191 39.2735 15.5441 39.0548 15.5441 38.5157C15.5441 37.9923 14.8566 37.7657 14.5363 38.172Z" fill="white"/>
<path d="M20.8256 38.5234C20.4194 38.8438 20.6459 39.5312 21.1694 39.5312C21.6928 39.5312 21.9194 38.8438 21.5131 38.5234C21.3959 38.4297 21.2475 38.3594 21.1694 38.3594C21.0912 38.3594 20.9428 38.4297 20.8256 38.5234Z" fill="white"/>
<path d="M17.6554 38.5939C17.4601 38.7892 17.4523 39.2267 17.6398 39.3986C18.0304 39.7579 18.6163 39.5079 18.6163 38.9845C18.6163 38.5001 17.9992 38.2501 17.6554 38.5939Z" fill="white"/>
</g>
<defs>
<clipPath id="clip0_395_4618">
<rect width="40" height="40" fill="white"/>
</clipPath>
</defs>
</svg>
