<svg width="35" height="35" viewBox="0 0 35 35" fill="none" xmlns="http://www.w3.org/2000/svg">
<path d="M15.894 0.0683594C13.8159 0.287109 12.0385 0.813477 10.186 1.75C9.24264 2.22852 7.84811 3.14453 7.6362 3.43164C7.47897 3.63672 7.51315 3.88965 7.72506 4.10156C7.97799 4.35449 8.23776 4.2793 9.09225 3.69824C11.1704 2.27637 13.3921 1.44922 15.9214 1.16211C16.8374 1.05273 19.0112 1.10742 19.9272 1.26465C20.3032 1.32617 20.6176 1.3877 20.6313 1.40137C20.6382 1.4082 20.4262 1.64062 20.1528 1.91406L19.6606 2.40625L18.9839 2.33105C13.9184 1.75684 8.81881 4.19043 5.94772 8.54492C5.14108 9.77539 4.49166 11.2451 4.14303 12.6123C3.95846 13.3438 3.76022 14.5879 3.76022 14.998V15.2441H3.40475C3.20651 15.2441 2.93307 15.2715 2.79635 15.3057L2.55026 15.3604L2.5776 15.0117C2.81686 11.915 3.93795 9.04395 5.79733 6.74023C6.35104 6.05664 6.40573 5.85156 6.11862 5.56445C5.9819 5.42773 5.8862 5.40039 5.69479 5.41406C5.4692 5.43457 5.38717 5.50293 5.0112 5.94727C3.02194 8.30566 1.76413 11.5049 1.49752 14.8613L1.42233 15.8252L1.10104 16.1396C0.697719 16.5225 0.396938 16.96 0.19186 17.4385C0.0346332 17.8008 0.0346332 17.8486 0.0141254 21.0068C-0.00638244 24.5068 0.000453502 24.582 0.396938 25.3135C0.615688 25.7168 1.28561 26.3525 1.75729 26.6123C2.19479 26.8447 3.05612 27.0703 3.5278 27.0703C3.84225 27.0703 3.88327 27.0908 3.92428 27.2275C3.99948 27.5488 4.43014 28.0137 4.83346 28.2051C5.86569 28.7109 7.15084 28.2256 7.561 27.166C7.68405 26.8447 7.69088 26.5713 7.69088 21.0547C7.69088 16.4199 7.67038 15.2305 7.60202 15.0186C7.45163 14.6016 6.89108 14.041 6.45358 13.8838C6.05709 13.7334 5.57174 13.6992 5.22311 13.8018L5.0112 13.8633L5.07272 13.542C5.84518 9.38574 9.02389 5.68066 13.1323 4.14941C14.8686 3.5 16.8989 3.21973 18.5737 3.39062L18.9907 3.43848L18.7583 3.9375C18.3618 4.78516 18.2251 5.48926 18.2319 6.63086C18.2319 7.46484 18.2592 7.72461 18.4096 8.27832C18.6967 9.36523 19.1958 10.3223 19.8657 11.0674L20.1665 11.4023V12.1543C20.1665 12.8037 20.187 12.9268 20.31 13.084C20.5083 13.3369 20.7749 13.3164 21.5405 12.9951C22.1284 12.749 22.1967 12.7354 22.3608 12.8242C23.1469 13.2275 25.0132 13.3848 26.1821 13.1387C27.2622 12.9199 28.1167 12.5303 28.9506 11.8877L29.3813 11.5596L29.559 12.1201C29.7094 12.6123 29.8256 13.0566 29.9692 13.6855C30.0102 13.8633 30.0034 13.8633 29.7915 13.8018C29.4565 13.7061 28.978 13.7266 28.6225 13.8496C28.2124 13.9863 27.6723 14.4717 27.4673 14.8887L27.31 15.21V21.0205C27.31 26.5713 27.3169 26.8447 27.4399 27.166C27.7954 28.0889 28.9028 28.6357 29.8256 28.3486L30.1469 28.2461V28.9365C30.1469 29.7363 30.0512 30.167 29.7368 30.748C29.1352 31.8828 28.0073 32.4707 26.4419 32.4707H25.9155L25.7788 32.1699C25.6215 31.8076 25.2114 31.3838 24.8628 31.2197C24.4594 31.0283 23.9194 30.9668 22.5932 30.9668C21.3081 30.9668 20.6245 31.042 20.2964 31.2129C19.9546 31.3838 19.6196 31.7256 19.4282 32.0879C19.271 32.3887 19.2436 32.5186 19.2436 33.0176C19.2436 33.5166 19.271 33.6465 19.4282 33.9473C19.5307 34.1455 19.7426 34.4121 19.8999 34.542C20.3921 34.9658 20.5835 35 22.6274 35H24.4526L24.8764 34.7881C25.3071 34.5693 25.6215 34.2412 25.813 33.7969L25.9018 33.585L26.7768 33.5439C27.2553 33.5234 27.8364 33.4551 28.062 33.3936C29.2514 33.0723 30.2563 32.2451 30.8237 31.1172C31.2065 30.3652 31.2612 30.0029 31.2612 28.3965V26.9473L31.6782 26.8994C33.271 26.7285 34.4467 25.8398 34.8637 24.4932C34.9936 24.0762 35.0005 23.8574 35.0005 20.9863C35.0005 18.1221 34.9936 17.8965 34.8637 17.4863C34.6997 16.9395 34.3032 16.3174 33.893 15.9619L33.5854 15.6885L33.5034 14.7314C33.3188 12.585 32.7173 10.4727 31.7534 8.63379L31.3842 7.94336L31.4594 7.4375C31.5962 6.48047 31.4458 5.25684 31.0766 4.23828C30.5161 2.70703 29.0122 1.18262 27.4194 0.512695C26.4487 0.102539 26.059 0.0341797 24.8149 0.0341797C23.6049 0.0341797 23.27 0.0957031 22.3676 0.451172L21.9233 0.635742L21.1508 0.451172C20.727 0.355469 20.0776 0.225586 19.7085 0.164062C18.9155 0.0410156 16.6665 -0.0136719 15.894 0.0683594ZM26.4214 1.33301C28.3696 1.90723 29.7505 3.34961 30.2153 5.28418C30.3999 6.0498 30.3999 7.21191 30.2153 7.97754C29.8325 9.57715 28.8208 10.8555 27.3852 11.5596C26.4214 12.0244 25.6557 12.1885 24.5757 12.1543C23.8715 12.127 23.6665 12.0928 23.1401 11.9014C22.8051 11.7852 22.4428 11.6621 22.3471 11.6279C22.1831 11.5732 21.8618 11.6484 21.3833 11.8604C21.2739 11.9014 21.2602 11.8604 21.2602 11.4229V10.9375L20.8569 10.4932C20.1255 9.69336 19.688 8.90039 19.4419 7.96387C19.2641 7.2666 19.2778 6.02246 19.476 5.30469C19.8999 3.73242 20.9389 2.41309 22.2856 1.71582C23.2632 1.20996 23.8032 1.09375 24.9516 1.12109C25.6284 1.1416 25.9292 1.18262 26.4214 1.33301ZM31.7124 11.4092C32.02 12.332 32.3071 13.6787 32.3891 14.5811C32.4438 15.1689 32.4438 15.1826 32.3071 15.1484C32.2251 15.1348 31.9585 15.0938 31.7124 15.0732L31.2544 15.0254L31.2065 14.5674C31.104 13.5146 30.6938 11.8877 30.2768 10.8281C30.2016 10.6367 30.2085 10.5889 30.3999 10.3154C30.5161 10.1514 30.6733 9.87793 30.7622 9.71387L30.9126 9.41309L31.1792 10.001C31.3227 10.3223 31.562 10.958 31.7124 11.4092ZM6.26901 15.0459C6.64499 15.3945 6.63131 15.2236 6.63131 21.0342C6.63131 24.5 6.60397 26.5098 6.56295 26.6738C6.52194 26.8105 6.39889 27.002 6.28952 27.0977C5.99557 27.3438 5.73581 27.3779 5.38034 27.2207C4.81979 26.9746 4.85397 27.3369 4.85397 21.0957C4.85397 15.0186 4.8403 15.2441 5.2778 14.9707C5.57174 14.7861 6.02291 14.8203 6.26901 15.0459ZM29.7231 14.9707C30.1401 15.2305 30.1469 15.2578 30.1469 18.6279V21.6768L30.3178 21.8408C30.5366 22.0664 30.851 22.0664 31.0698 21.8408L31.2407 21.6768V18.9014C31.2407 16.3105 31.2475 16.1328 31.3637 16.1328C31.4253 16.1328 31.6919 16.1807 31.9516 16.2354C32.813 16.4199 33.4965 16.9668 33.7768 17.7051C33.8999 18.0264 33.9067 18.252 33.9067 20.9863C33.9067 23.7891 33.8999 23.9395 33.7631 24.3018C33.5991 24.7393 33.1206 25.2725 32.6899 25.4912C32.3618 25.6553 31.7055 25.8398 31.4321 25.8398H31.2407V24.9238C31.2407 23.8369 31.1792 23.6865 30.7006 23.6865C30.2016 23.6865 30.188 23.7344 30.1469 25.3613L30.1128 26.79L29.9145 26.9951C29.6274 27.2959 29.3745 27.3779 29.0532 27.2822C28.7114 27.1797 28.4585 26.8721 28.4038 26.5029C28.3833 26.3457 28.3696 23.8027 28.3833 20.8496C28.4038 15.668 28.4106 15.4766 28.5337 15.2646C28.7866 14.8477 29.313 14.7178 29.7231 14.9707ZM3.69186 21.1641V25.9971L3.28854 25.9561C2.43405 25.8809 1.61373 25.2998 1.2651 24.5342L1.08737 24.1377L1.10788 21.0752C1.12838 18.0332 1.12838 18.0127 1.28561 17.7188C1.48385 17.3496 1.85983 16.9326 2.16745 16.7412C2.4819 16.543 3.11764 16.3447 3.43893 16.3447L3.69186 16.3379V21.1641ZM24.4048 32.2314C24.5688 32.3271 24.685 32.4775 24.7739 32.6963C24.9106 33.0176 24.9106 33.0176 24.7739 33.3389C24.5483 33.8857 24.3911 33.9336 22.9077 33.9609C21.4311 33.9951 21.0073 33.9473 20.6997 33.749C20.4194 33.5576 20.269 33.1816 20.3374 32.833C20.3921 32.5322 20.7612 32.1562 21.0415 32.1084C21.144 32.0879 21.8891 32.0811 22.6958 32.0879C24.0424 32.0947 24.186 32.1084 24.4048 32.2314Z" fill="#1D28B5"/>
<path d="M24.2898 2.76845C23.3669 3.02138 22.7312 3.78017 22.6492 4.70986C22.6013 5.22255 22.7517 5.43446 23.1755 5.43446C23.5173 5.43446 23.7224 5.23622 23.7224 4.9081C23.7224 4.23134 24.5085 3.62294 25.1306 3.82802C25.8415 4.06728 26.1628 4.77138 25.8415 5.40029C25.6706 5.74208 25.3904 5.93349 24.946 6.01552C24.3376 6.13173 24.3376 6.13857 24.3376 7.4579C24.3376 8.55165 24.3445 8.61318 24.488 8.74989C24.6589 8.90712 24.9939 8.92763 25.1785 8.79091C25.3562 8.65419 25.4314 8.31239 25.4314 7.65614V7.07509L25.7595 6.93837C26.1628 6.77431 26.6482 6.29579 26.8669 5.84462C27.0105 5.56435 27.0378 5.40029 27.0378 4.92177C27.0378 4.42275 27.0105 4.28603 26.8464 3.95107C26.3816 3.00771 25.2742 2.49501 24.2898 2.76845Z" fill="#1D28B5"/>
<path d="M24.4727 9.70703C24.2608 9.91895 24.2881 10.3428 24.5137 10.5205C24.6162 10.6025 24.7666 10.6641 24.8487 10.6641C24.9307 10.6641 25.0811 10.6025 25.1836 10.5205C25.3203 10.4111 25.3614 10.3223 25.3614 10.1104C25.3614 9.76855 25.1768 9.57031 24.8487 9.57031C24.6983 9.57031 24.5547 9.625 24.4727 9.70703Z" fill="#1D28B5"/>
<path d="M16.8872 13.5146C14.5288 13.6992 12.3208 15.0117 11.0288 17.0009C10.2563 18.1904 9.85983 19.4208 9.7983 20.8906C9.69576 23.1191 10.4477 25.0673 11.9995 26.6259C14.1733 28.7929 17.5161 29.5449 20.2163 28.4648L20.6538 28.287L21.4126 28.6015C22.2944 28.9706 22.5542 28.998 22.7592 28.7382C22.8891 28.5742 22.9028 28.4648 22.9028 27.6718V26.7831L23.2514 26.4003C25.3842 24.0693 25.8149 20.6855 24.3588 17.7324C23.1967 15.3671 20.9546 13.8154 18.309 13.5351C17.6801 13.4667 17.4956 13.4667 16.8872 13.5146ZM18.2885 14.6357C21.2212 14.9912 23.5044 17.2197 24.0307 20.2275C24.2153 21.2597 24.1333 22.2919 23.7915 23.3242C23.4702 24.2949 23.0122 25.0263 22.1713 25.9218L21.809 26.3115V26.9267C21.809 27.2685 21.8022 27.5488 21.7885 27.5488C21.7817 27.5488 21.5561 27.4599 21.2963 27.3437C21.0297 27.2343 20.7495 27.1386 20.6674 27.1386C20.5786 27.1386 20.2573 27.2412 19.9497 27.371C18.9311 27.788 17.8989 27.9453 16.9213 27.8222C14.0844 27.4804 11.7944 25.539 11.063 22.8662C10.8442 22.0663 10.8442 20.4462 11.063 19.6191C11.685 17.2949 13.4897 15.4492 15.7661 14.8271C16.6753 14.581 17.3794 14.5263 18.2885 14.6357Z" fill="#1D28B5"/>
<path d="M15.8454 17.876C15.5857 18.0195 15.5173 18.4023 15.7019 18.6484L15.8386 18.833H17.4997H19.1609L19.2976 18.6484C19.489 18.3955 19.4138 18.0195 19.1404 17.876C18.8532 17.7256 16.1189 17.7324 15.8454 17.876Z" fill="#1D28B5"/>
<path d="M14.5138 20.6924C14.1856 20.7539 14.0421 21.2734 14.2608 21.5879L14.3634 21.7383H17.5011H20.6388L20.7413 21.5879C20.8917 21.376 20.878 21.0342 20.7208 20.8428L20.5909 20.6787L17.6241 20.6719C15.9972 20.665 14.5958 20.6719 14.5138 20.6924Z" fill="#1D28B5"/>
<path d="M15.7656 23.6935C15.5469 23.9123 15.5469 24.2883 15.7656 24.507C15.9229 24.6643 19.0811 24.6574 19.2383 24.5002C19.457 24.2814 19.457 23.9055 19.2383 23.6867C19.0811 23.5295 15.9229 23.5363 15.7656 23.6935Z" fill="#1D28B5"/>
</svg>
