<svg width="35" height="35" viewBox="0 0 35 35" fill="none" xmlns="http://www.w3.org/2000/svg">
<path d="M6.68651 0.10915C5.01171 0.368916 3.39843 1.22341 2.18847 2.50173C-1.3047 6.17946 -0.498058 12.0994 3.87011 14.7449C4.49901 15.1277 5.26464 15.449 6.08495 15.6677C6.50194 15.784 6.81639 15.8113 7.79393 15.8181C8.45018 15.825 9.16112 15.7976 9.37304 15.7703L9.75585 15.7088L9.66698 16.2146C9.55077 16.8572 9.55077 18.1424 9.66698 18.7849L9.75585 19.2908L9.37304 19.2293C9.16112 19.2019 8.45018 19.1746 7.79393 19.1814C6.48827 19.1883 6.11913 19.2566 5.01854 19.6804C3.0703 20.4324 1.40233 22.0799 0.595692 24.0623C-0.997081 27.9656 0.759754 32.45 4.59472 34.2478C6.92577 35.3347 9.76268 35.2117 11.9433 33.9129C13.8027 32.8054 15.081 31.0965 15.6689 28.9158C15.7851 28.4988 15.8125 28.1843 15.8193 27.2068C15.8262 26.5506 15.7988 25.8396 15.7715 25.6277L15.7099 25.2449L16.2158 25.3338C16.8584 25.45 18.1435 25.45 18.7861 25.3338L19.292 25.2449L19.2305 25.6277C19.2031 25.8396 19.1758 26.5506 19.1826 27.2068C19.1894 28.1843 19.2168 28.4988 19.333 28.9158C20.0371 31.534 21.7598 33.489 24.1797 34.4461C27.167 35.6218 30.5781 34.8562 32.8135 32.4978C36.6142 28.4988 35.2471 21.9431 30.1611 19.7556C29.0947 19.2976 28.5 19.1814 27.1738 19.1746C26.5381 19.1746 25.8408 19.2019 25.6289 19.2293L25.2461 19.2908L25.3349 18.7849C25.3828 18.5115 25.4238 17.9304 25.4238 17.4998C25.4238 17.0691 25.3828 16.4881 25.3349 16.2146L25.2461 15.7088L25.6289 15.7703C25.8408 15.7976 26.5381 15.825 27.1738 15.825C28.165 15.8181 28.4248 15.7976 28.9512 15.6609C29.874 15.4217 30.708 15.0457 30.8174 14.8201C30.9267 14.5808 30.8584 14.3074 30.6465 14.1707C30.4482 14.0408 30.2842 14.075 29.5322 14.3894C28.7461 14.7244 27.9258 14.8543 26.7978 14.8133C25.9844 14.7859 25.6973 14.7517 25.1914 14.6013C22.6348 13.8425 20.7959 11.8328 20.2627 9.22145C20.0918 8.3738 20.1601 6.87673 20.3994 6.05642C21.1103 3.66384 22.9971 1.85231 25.417 1.22341C26.5449 0.936298 28.0693 0.990986 29.2109 1.3738C32.1709 2.35817 34.1055 5.17458 33.9551 8.27126C33.873 9.8777 33.3398 11.2175 32.2598 12.5027C31.8496 12.9881 31.7812 13.1043 31.8223 13.2547C31.8906 13.5349 32.0547 13.6716 32.3281 13.6716C32.5332 13.6716 32.6221 13.617 32.9365 13.2752C35.0625 10.9988 35.5957 7.47145 34.249 4.59352C32.9433 1.8113 30.0928 -0.007061 27.0371 -0.000225067C23.831 0.00661087 20.8232 2.05739 19.6816 5.01735C19.2578 6.11794 19.1894 6.48708 19.1826 7.79274C19.1758 8.44899 19.2031 9.15993 19.2305 9.37185L19.292 9.75466L18.7861 9.66579C18.1435 9.54958 16.8584 9.54958 16.2158 9.66579L15.7099 9.75466L15.751 9.50856C15.7783 9.37185 15.8125 8.81813 15.833 8.27126C15.8808 7.09548 15.792 6.33669 15.5732 6.10427C15.375 5.89235 15.081 5.89919 14.8623 6.11794C14.7051 6.27517 14.6982 6.31618 14.7461 6.64431C14.7734 6.84255 14.8008 7.4988 14.7939 8.10036C14.7871 9.0779 14.7666 9.25563 14.6025 9.80935C13.8369 12.3797 11.834 14.2049 9.22264 14.7381C8.45702 14.8884 6.96678 14.8406 6.18749 14.6355C3.58983 13.9451 1.55956 11.7166 1.1289 9.07106C0.424794 4.73708 3.88378 0.826923 8.23827 1.04567C10.3984 1.15505 12.3808 2.23513 13.5771 3.95095C14.0625 4.63454 14.1445 4.71657 14.3974 4.71657C14.6914 4.71657 14.9307 4.42946 14.876 4.14919C14.8144 3.83474 14.1582 2.94606 13.5293 2.32399C11.7383 0.539814 9.1953 -0.287334 6.68651 0.10915ZM19.1758 10.78L19.6543 10.9099L19.9961 11.5593C20.8096 13.0974 21.9033 14.1912 23.4414 15.0047L24.0908 15.3465L24.2207 15.825C24.4121 16.5154 24.4121 18.4842 24.2207 19.1746L24.0908 19.6531L23.4414 19.9949C21.9033 20.8084 20.8096 21.9021 19.9961 23.4402L19.6543 24.0896L19.1758 24.2127C18.2051 24.4724 16.626 24.4451 15.6689 24.1648C15.3135 24.0554 15.3066 24.0554 15.0127 23.4607C14.2676 21.9773 13.0234 20.74 11.4922 19.947L10.9111 19.6531L10.7812 19.1746C10.5898 18.4842 10.583 16.5154 10.7812 15.825L10.9111 15.3465L11.5742 14.9978C13.0849 14.198 14.1992 13.0769 14.999 11.573C15.3818 10.8416 15.3545 10.8621 16.373 10.6638C16.9131 10.5613 18.6221 10.6365 19.1758 10.78ZM9.81054 20.3982C12.3672 21.157 14.206 23.1668 14.7392 25.7781C14.8896 26.5437 14.8418 28.034 14.6367 28.8133C14.0625 30.9734 12.4014 32.7849 10.2822 33.5574C7.02147 34.7468 3.28222 33.2429 1.76464 30.1394C-0.108409 26.3181 1.77147 21.8338 5.82518 20.4802C6.60448 20.2136 6.97362 20.1726 8.13573 20.1931C9.04491 20.2136 9.28417 20.241 9.81054 20.3982ZM28.8144 20.364C29.4775 20.5418 30.5098 21.0271 31.0635 21.4236C33.8115 23.3992 34.748 27.0633 33.2646 30.0779C32.5879 31.4588 31.4053 32.6345 30.0449 33.2908C27.7822 34.3777 25.123 34.1453 23.0723 32.6892C22.0879 31.992 21.3564 31.117 20.8232 30.0027C20.3037 28.9363 20.208 28.4715 20.208 27.0359C20.208 25.8943 20.2217 25.7576 20.3926 25.1902C21.1514 22.6677 23.1133 20.8425 25.6836 20.2752C26.374 20.1179 28.083 20.1658 28.8144 20.364Z" fill="#1D28B5"/>
<path d="M16.9554 12.79C15.8753 12.9746 14.7747 13.9248 14.4945 14.9297L14.4056 15.2441H13.9134C13.2845 15.2441 12.7923 15.4766 12.4779 15.9209C12.2796 16.208 12.2728 16.2285 12.2523 17.1787C12.2249 18.2725 12.2796 18.5459 12.5941 18.9082C12.9017 19.2568 13.2503 19.4072 13.845 19.4619L14.3577 19.5029V19.9404C14.3577 20.6377 14.6243 21.1025 15.2122 21.417C15.4515 21.5469 15.6019 21.5674 16.3265 21.5674C17.1673 21.5674 17.1741 21.5674 17.3382 21.376C17.5365 21.1436 17.5433 20.9932 17.3656 20.7607C17.2357 20.5967 17.1878 20.5898 16.4359 20.5625C15.2806 20.5283 15.3695 20.7812 15.3968 17.7461L15.4173 15.2783L15.6156 14.916C16.4769 13.3711 18.5892 13.4121 19.43 14.9844C19.5804 15.2715 19.5872 15.3467 19.6214 17.5479C19.6556 19.7695 19.6556 19.8242 19.806 19.9678C20.1068 20.2686 20.6468 20.0635 20.6468 19.6533C20.6468 19.5166 20.6878 19.4961 21.1595 19.4619C21.7542 19.4072 22.1029 19.2568 22.4105 18.9082C22.7249 18.5459 22.7796 18.2725 22.7523 17.1787C22.7318 16.2217 22.7318 16.2148 22.5198 15.9141C22.1917 15.4697 21.7132 15.2441 21.0911 15.2441H20.599L20.5101 14.9297C20.2161 13.8906 19.1292 12.9678 17.9808 12.79C17.4818 12.708 17.4749 12.708 16.9554 12.79ZM14.3441 17.3428L14.3236 18.4229L13.9271 18.416C13.3118 18.4023 13.264 18.3271 13.264 17.377C13.264 16.6592 13.2777 16.5703 13.4144 16.4268C13.5374 16.2969 13.6331 16.2695 13.9613 16.2695H14.3646L14.3441 17.3428ZM21.5833 16.4199C21.7269 16.5566 21.7406 16.6182 21.7406 17.3633C21.7406 18.334 21.6927 18.4023 21.0775 18.416L20.681 18.4229L20.6605 17.3428L20.64 16.2695H21.0365C21.3372 16.2695 21.4603 16.3037 21.5833 16.4199Z" fill="#1D28B5"/>
<path d="M7.04297 22.3809C5.60059 22.6885 4.41797 23.5703 3.76172 24.8281C3.38574 25.5459 3.21484 26.25 3.21484 27.0635C3.21484 27.8838 3.34473 28.4443 3.70703 29.1895C3.93262 29.6611 4.09668 29.8799 4.60938 30.3926C5.12207 30.9053 5.34082 31.0693 5.8125 31.2949C6.55762 31.6572 7.11816 31.7871 7.93848 31.7871C10.3447 31.7871 12.3066 30.0781 12.6553 27.665C12.751 27.0088 12.6826 26.2158 12.4775 25.6006C12.3203 25.1357 12.2041 25.0195 11.8965 25.0195C11.4385 25.0195 11.3154 25.334 11.5205 26.0039C11.6777 26.5303 11.6846 26.5234 11.1104 26.5234C10.7549 26.5234 10.584 26.4961 10.5703 26.4346C10.5566 26.3936 10.5088 26.0791 10.4678 25.751C10.3994 25.2246 10.2012 24.4863 10.0166 24.0352C9.96191 23.9053 9.96191 23.9053 10.1191 24.0146C10.3379 24.1719 10.543 24.1582 10.7617 23.9873C11.0283 23.7822 11.0078 23.4473 10.7207 23.2012C10.4404 22.9688 9.63379 22.5791 9.14844 22.4492C8.61523 22.3057 7.56934 22.2715 7.04297 22.3809ZM7.45313 25.0537V26.5234H6.89941H6.3457L6.39355 26.1338C6.50977 25.2109 6.8584 24.2197 7.22754 23.7891C7.32324 23.6729 7.41211 23.584 7.42578 23.584C7.43945 23.584 7.45313 24.2471 7.45313 25.0537ZM8.78613 23.96C9.10059 24.4385 9.42188 25.416 9.47656 26.0313L9.52441 26.5234H8.99805H8.47852V25.0537C8.47852 24.2471 8.49219 23.584 8.5127 23.584C8.5332 23.584 8.65625 23.7549 8.78613 23.96ZM5.80566 24.2471C5.63477 24.6504 5.42285 25.5186 5.36133 26.0928L5.31348 26.5234H4.78027H4.24707L4.28809 26.2979C4.43164 25.5322 4.98535 24.6299 5.60059 24.1582C5.76465 24.0283 5.9082 23.9258 5.92188 23.9258C5.93555 23.9258 5.88086 24.0693 5.80566 24.2471ZM5.39551 28.2119C5.44336 28.5811 5.57324 29.1553 5.68262 29.4971C5.78516 29.832 5.86035 30.1191 5.84668 30.1328C5.77148 30.208 4.85547 29.1826 4.66406 28.8135C4.48633 28.4512 4.24023 27.7607 4.24023 27.6035C4.24023 27.5762 4.47949 27.5488 4.77344 27.5488H5.31348L5.39551 28.2119ZM7.45313 29.0664C7.45313 30.5498 7.45313 30.5771 7.32324 30.4609C6.94727 30.1191 6.50293 28.9297 6.39355 27.9727L6.3457 27.5488H6.89941H7.45313V29.0664ZM9.4834 28.0068C9.39453 28.8955 8.9707 30.0645 8.6084 30.3926C8.47852 30.5088 8.47852 30.4746 8.47852 29.0322V27.5488H8.99805H9.52441L9.4834 28.0068ZM11.5957 27.8359C11.5205 28.3691 11.042 29.2168 10.5566 29.7021C10.3105 29.9482 10.085 30.1465 10.0508 30.1465C10.0166 30.1465 10.0645 29.9414 10.1533 29.6816C10.3447 29.1279 10.5293 28.2666 10.5293 27.9043C10.5293 27.7607 10.5498 27.6172 10.5771 27.5967C10.5977 27.5693 10.8506 27.5488 11.1309 27.5488H11.6436L11.5957 27.8359Z" fill="#1D28B5"/>
<path d="M29.5676 22.415C29.4035 22.4902 28.884 22.9619 28.2551 23.5908C27.1067 24.7598 26.9973 24.9512 27.1409 25.498C27.216 25.7783 27.5852 26.209 27.9953 26.4961L28.2004 26.6396L28.0159 26.9199C27.7151 27.3642 27.4416 27.6514 27.0315 27.9316L26.6418 28.1982L26.4983 27.9932C26.2112 27.583 25.7805 27.2139 25.5002 27.1387C24.9465 26.9883 24.7688 27.0976 23.5383 28.3213C22.301 29.5654 22.1916 29.75 22.3489 30.2969C22.5198 30.8574 23.3948 31.5273 24.2082 31.7119C24.3723 31.7529 24.7825 31.7871 25.1106 31.7871C28.344 31.7939 31.7961 28.3486 31.7893 25.1289C31.7893 24.7871 31.7551 24.3701 31.7141 24.206C31.4885 23.2148 30.6614 22.2851 30.0119 22.2851C29.9162 22.2851 29.718 22.3467 29.5676 22.415ZM30.2785 23.5635C30.6135 23.9668 30.7639 24.459 30.7639 25.1084C30.7639 26.3389 30.176 27.624 29.0891 28.7725C28.2073 29.6953 27.1887 30.3447 26.1565 30.6318C25.1106 30.9121 23.9621 30.7275 23.4494 30.1807L23.2854 30.0029L24.2356 29.0527C25.2883 27.9932 25.2883 27.9932 25.6028 28.5264C25.8352 28.9365 26.0334 29.1006 26.3616 29.1758C26.8606 29.2851 27.5168 28.957 28.2414 28.2392C28.9592 27.5146 29.2873 26.8584 29.178 26.3594C29.1028 26.0312 28.9387 25.833 28.5285 25.6006C28.0022 25.2861 28.0022 25.293 29.0412 24.2471C29.5539 23.7344 29.9983 23.3105 30.0256 23.3105C30.0461 23.3105 30.1623 23.4267 30.2785 23.5635Z" fill="#1D28B5"/>
<path d="M23.7751 3.3153C23.1736 3.53405 22.7292 3.97839 22.4421 4.61413C22.2644 5.01745 22.2165 8.30554 22.3874 8.92761C22.5994 9.70007 23.2829 10.3563 24.0759 10.5204C24.2605 10.5614 24.9509 10.5956 25.614 10.5956H26.824L27.446 11.2108C27.7878 11.5458 28.157 11.8534 28.2595 11.8944C28.9568 12.161 29.6677 11.6757 29.6677 10.9237V10.6092L30.0095 10.5341C30.7136 10.3837 31.281 9.93933 31.5954 9.31042C31.7527 8.99597 31.7527 8.94811 31.7527 6.86999V4.75085L31.5681 4.40905C31.3494 3.99889 30.9734 3.62975 30.5564 3.411L30.2488 3.24694L27.1384 3.23327C24.6228 3.2196 23.9802 3.24011 23.7751 3.3153ZM30.2556 4.41589C30.3581 4.49108 30.5085 4.64147 30.5837 4.74401C30.7204 4.92175 30.7273 5.03796 30.7478 6.75378C30.7615 7.75866 30.7478 8.64733 30.7273 8.72936C30.6726 8.96862 30.3445 9.30358 30.0437 9.4403C29.8865 9.5155 29.613 9.57018 29.3874 9.57018C28.7995 9.57018 28.6833 9.69323 28.656 10.3563L28.6286 10.8827L27.9861 10.2469L27.3435 9.60436L25.7507 9.57018L24.1511 9.536L23.864 9.3446C23.3513 9.0028 23.3103 8.83874 23.3103 6.93835C23.3103 6.036 23.3376 5.19518 23.3786 5.0653C23.4538 4.7987 23.6589 4.55261 23.9597 4.36804C24.1511 4.24499 24.3288 4.23815 27.1179 4.25182C29.9753 4.27233 30.071 4.27917 30.2556 4.41589Z" fill="#1D28B5"/>
<path d="M24.707 6.43945C24.5566 6.50781 24.4062 6.76074 24.4062 6.94531C24.4062 7.11621 24.7275 7.38281 24.9395 7.38281C25.1855 7.38281 25.4316 7.12988 25.4316 6.87695C25.4316 6.66504 25.1582 6.35742 24.9736 6.36426C24.9053 6.36426 24.7822 6.39844 24.707 6.43945Z" fill="#1D28B5"/>
<path d="M26.82 6.43917C26.4919 6.59639 26.4714 7.14327 26.7927 7.30733C27.3259 7.59444 27.8454 6.86983 27.3737 6.50069C27.1755 6.34346 27.0456 6.32979 26.82 6.43917Z" fill="#1D28B5"/>
<path d="M28.9356 6.43945C28.7305 6.54199 28.6211 6.83594 28.7032 7.06152C28.7852 7.2666 28.9698 7.38281 29.2159 7.38281C29.6465 7.38281 29.8311 6.77441 29.4893 6.50098C29.2911 6.34375 29.1612 6.33008 28.9356 6.43945Z" fill="#1D28B5"/>
<path d="M3.76172 4.36123C3.63184 4.43643 3.4541 4.59366 3.37207 4.7167C3.21484 4.94229 3.21484 4.94229 3.21484 7.92276C3.21484 10.7733 3.22168 10.9101 3.35156 11.1288C3.42676 11.2519 3.58398 11.4091 3.70703 11.4843C3.92578 11.6142 4.0625 11.621 7.93164 11.621C12.4775 11.621 12.2793 11.6415 12.5664 11.0741C12.7236 10.7665 12.7236 10.7665 12.7031 7.84756C12.6826 5.02432 12.6758 4.92862 12.5391 4.74405C12.4639 4.64151 12.3135 4.49112 12.2109 4.41592C12.0264 4.27237 11.9443 4.27237 8.01367 4.25186C4.20605 4.23819 3.9873 4.24502 3.76172 4.36123ZM9.63379 6.59659L8.30078 7.92959H7.96582H7.63086L6.29785 6.59659L4.95801 5.26358H7.96582H10.9736L9.63379 6.59659ZM11.6914 7.94327V9.87784L10.7207 8.90713L9.74316 7.92959L10.7002 6.97256C11.2266 6.4462 11.6641 6.01553 11.6709 6.01553C11.6846 6.01553 11.6914 6.8837 11.6914 7.94327ZM5.21777 7.02725L6.1543 7.96377L5.19727 8.92081L4.24023 9.87784V7.97745C4.24023 6.93838 4.24707 6.08389 4.26074 6.08389C4.26758 6.08389 4.69824 6.50772 5.21777 7.02725ZM7.18652 8.81827C7.59668 9.00284 8.27344 8.996 8.68359 8.81143L8.98438 8.67471L9.94141 9.63858L10.9053 10.5956H7.93164H4.95801L5.91504 9.63858C6.44141 9.11221 6.87207 8.68155 6.87891 8.68155C6.88574 8.68155 7.02246 8.74307 7.18652 8.81827Z" fill="#1D28B5"/>
</svg>
