<svg width="35" height="35" viewBox="0 0 35 35" fill="none" xmlns="http://www.w3.org/2000/svg">
<g clip-path="url(#clip0_2105_935)">
<path d="M1.62012 2.89844C0.868164 3.21289 0.375977 3.73926 0.136719 4.50488C0 4.92871 0 5.12012 0 17.4932C0 28.7656 0.0136719 30.0918 0.109375 30.4268C0.334961 31.2061 0.922852 31.8418 1.6748 32.1221L2.05762 32.2656H17.5C32.8604 32.2656 32.9492 32.2656 33.3184 32.1289C34.0771 31.8418 34.6172 31.2744 34.8633 30.4951C34.9932 30.085 35 29.873 35 26.4756V22.8936L34.8291 22.7295C34.6172 22.5107 34.3574 22.5107 34.1455 22.7295L33.9746 22.8936V26.4756V30.0645L33.7832 30.4268C33.667 30.6592 33.4824 30.8711 33.2979 31.001L33.0039 31.2061H17.5H1.99609L1.70215 31.001C1.51758 30.8711 1.33301 30.6592 1.2168 30.4268L1.02539 30.0645V19.749V9.43359H2.22168C3.4043 9.43359 3.4248 9.43359 3.58887 9.2627C3.80762 9.05078 3.80762 8.79102 3.58887 8.5791C3.4248 8.4082 3.4043 8.4082 2.22168 8.4082H1.02539V6.67188V4.93555L1.2168 4.57324C1.33301 4.34082 1.51758 4.12891 1.70215 3.99902L1.99609 3.79395H17.5H33.0039L33.2979 3.99902C33.4824 4.12891 33.667 4.34082 33.7832 4.57324L33.9746 4.93555V6.67188V8.4082H19.7217H5.46191L5.29785 8.5791C5.20215 8.66797 5.12695 8.8252 5.12695 8.9209C5.12695 9.0166 5.20215 9.17383 5.29785 9.2627L5.46191 9.43359H19.7217H33.9746V15.1416V20.8564L34.1455 21.0205C34.3574 21.2393 34.6172 21.2393 34.8291 21.0205L35 20.8564V12.8994C35 5.12012 35 4.92871 34.8633 4.50488C34.6172 3.72559 34.0771 3.1582 33.3184 2.87109C32.9492 2.73438 32.8604 2.73438 17.4795 2.73438H2.0166L1.62012 2.89844Z" fill="#1D28B5"/>
<path d="M4.30664 5.58516C4.08789 5.66719 3.96484 5.83809 3.96484 6.06367C3.96484 6.69941 4.91504 6.74043 4.93555 6.09785C4.94922 5.76289 4.59375 5.48262 4.30664 5.58516Z" fill="#1D28B5"/>
<path d="M6.65032 5.60536C6.34271 5.72841 6.26067 6.15907 6.4931 6.412C6.69817 6.63075 7.05364 6.61708 7.23821 6.38466C7.32024 6.28212 7.38177 6.15907 7.38177 6.11122C7.38177 5.93349 7.22454 5.68739 7.06048 5.6122C6.86907 5.52333 6.8554 5.52333 6.65032 5.60536Z" fill="#1D28B5"/>
<path d="M9.05709 5.61906C8.72213 5.79679 8.66061 6.09074 8.89303 6.38468C9.24166 6.82902 9.93893 6.38468 9.73385 5.84465C9.69284 5.74211 9.36471 5.53703 9.2485 5.53703C9.22116 5.53703 9.13229 5.57804 9.05709 5.61906Z" fill="#1D28B5"/>
<path d="M27.8421 5.60547C27.5345 5.72852 27.4661 6.09766 27.6917 6.38477L27.8284 6.5625H29.5648H31.3011L31.4378 6.38477C31.6702 6.09082 31.6155 5.79688 31.3011 5.63965C31.1507 5.55762 30.7884 5.53711 29.5511 5.54395C28.6966 5.54395 27.9241 5.57129 27.8421 5.60547Z" fill="#1D28B5"/>
<path d="M7.36035 12.79C6.67676 12.9541 5.95215 13.5557 5.65137 14.2051C5.50781 14.5059 5.50098 14.6426 5.48047 16.3379C5.4668 18.0605 5.4668 18.1631 5.60352 18.375C5.67871 18.498 5.8291 18.6484 5.93848 18.71C6.08203 18.792 6.15039 18.915 6.21875 19.1543C6.31445 19.5508 6.76562 20.2412 7.0459 20.4463C7.2168 20.5693 7.25098 20.6309 7.23047 20.8291C7.20996 21.0684 7.20996 21.0684 6.62891 21.2393C5.125 21.6699 3.92187 22.5791 3.34766 23.7207C3.01953 24.377 2.9375 24.8213 2.9375 26.0176C2.9375 27.2344 2.99219 27.4189 3.42969 27.6855C3.64844 27.8154 3.78516 27.8223 9.02832 27.8223H14.4014L14.627 27.6719C15.0713 27.3711 15.1328 27.207 15.1602 26.3867C15.208 25.04 15.0098 24.1445 14.4902 23.3379C13.8408 22.3467 12.7061 21.5742 11.3799 21.2188C10.8467 21.082 10.833 21.0684 10.8125 20.8496C10.792 20.665 10.8262 20.5967 11.0312 20.4258C11.3662 20.1523 11.667 19.6943 11.8242 19.2363C11.9199 18.9629 12.043 18.7783 12.248 18.5938L12.542 18.334V16.4268V14.5127L12.3437 14.2598C12.2344 14.1162 12.0156 13.9385 11.8516 13.8701C11.6328 13.7676 11.5303 13.665 11.4141 13.4258C11.3184 13.2344 11.1543 13.043 10.9834 12.9336L10.71 12.749L9.16504 12.7354C8.31738 12.7285 7.50391 12.749 7.36035 12.79ZM10.4434 13.8223C10.4775 13.8701 10.5322 14.0068 10.5527 14.1299C10.6211 14.4307 10.8945 14.6836 11.2295 14.7451L11.5166 14.8066L11.5303 16.3037L11.5508 17.8076L11.3252 17.917C11.1064 18.0264 11.0518 18.1221 10.8672 18.8467C10.6963 19.5166 9.96484 20.0908 9.19922 20.1523C8.22852 20.2344 7.30566 19.5508 7.13477 18.6279C7.06641 18.2246 6.93652 18.0059 6.69727 17.9102L6.49219 17.8281V16.3447C6.49219 15.0527 6.5127 14.834 6.62207 14.5947C6.78613 14.2461 7.08691 13.959 7.42187 13.8428C7.78418 13.7129 10.3408 13.6992 10.4434 13.8223ZM9.8418 21.3691C9.91699 21.5879 10.1836 21.875 10.4229 21.998C10.498 22.0322 10.7783 22.1211 11.0381 22.1826C11.8447 22.3809 12.5898 22.7773 13.1162 23.2969C13.8818 24.0488 14.1484 24.7939 14.1484 26.1611V26.7969H9.04883H3.94922L3.97656 25.7852C3.99707 24.7871 3.99707 24.7803 4.25684 24.2402C4.74219 23.2217 5.61035 22.5791 7.03906 22.1826C7.74316 21.9844 8.06445 21.7588 8.20801 21.3623L8.2832 21.1572H9.02832H9.77344L9.8418 21.3691Z" fill="#1D28B5"/>
<path d="M17.0828 12.8721C16.8708 12.9814 16.7341 13.1182 16.6248 13.3301C16.4812 13.6172 16.4675 13.7061 16.488 14.6768C16.5085 15.8252 16.5496 15.9277 17.0212 16.249L17.2468 16.4062H24.2537H31.2537L31.5134 16.2627C31.9851 15.9961 32.0603 15.7568 32.0603 14.5469C32.0603 13.5625 32.0466 13.4736 31.9031 13.2549C31.821 13.125 31.616 12.9541 31.4451 12.8652L31.1443 12.7148H24.2605H17.3835L17.0828 12.8721ZM31.0349 14.5605V15.3809H24.2673H17.4998V14.6084C17.4998 14.1777 17.5203 13.8086 17.5476 13.7881C17.5681 13.7607 20.6169 13.7402 24.3152 13.7402H31.0349V14.5605Z" fill="#1D28B5"/>
<path d="M16.8233 18.7373C16.4678 18.8809 16.3653 19.2705 16.6114 19.5371L16.7549 19.6875H24.2676C31.6983 19.6875 31.7872 19.6875 31.9239 19.5508C32.0948 19.3799 32.1016 19.0654 31.9307 18.8604L31.8008 18.6963L24.3907 18.6826C19.7217 18.6758 16.9258 18.6963 16.8233 18.7373Z" fill="#1D28B5"/>
<path d="M16.6201 21.5741C16.5381 21.6766 16.4766 21.827 16.4766 21.9159C16.4766 22.1073 16.6816 22.3329 16.9004 22.3876C16.9893 22.4081 20.3662 22.4149 24.4131 22.4081C31.543 22.3876 31.7822 22.3807 31.9189 22.2577C32.1035 22.0868 32.1104 21.7177 31.9258 21.5331C31.7891 21.3964 31.7002 21.3964 24.2764 21.3964H16.7568L16.6201 21.5741Z" fill="#1D28B5"/>
<path d="M16.6182 24.24C16.4404 24.4656 16.4336 24.6844 16.6045 24.8895L16.7344 25.0535L20.5146 25.074C23.1738 25.0877 24.3564 25.0672 24.4795 25.0125C24.8418 24.8689 24.8828 24.3152 24.5478 24.1375C24.459 24.0828 23.1533 24.0623 20.583 24.0623H16.7549L16.6182 24.24Z" fill="#1D28B5"/>
</g>
<defs>
<clipPath id="clip0_2105_935">
<rect width="35" height="35" fill="white"/>
</clipPath>
</defs>
</svg>
