<svg width="30" height="30" viewBox="0 0 30 30" fill="none" xmlns="http://www.w3.org/2000/svg">
<g clip-path="url(#clip0_395_3693)">
<circle cx="15" cy="15" r="15" fill="url(#paint0_linear_395_3693)"/>
<path d="M15.0007 7C12.8281 7 12.5554 7.00952 11.7021 7.04832C10.8504 7.08736 10.269 7.22216 9.7604 7.42C9.23416 7.62431 8.78784 7.89767 8.3432 8.34247C7.89816 8.78718 7.6248 9.2335 7.41984 9.75949C7.22144 10.2683 7.08648 10.8499 7.04816 11.7012C7.01 12.5545 7 12.8273 7 15C7 17.1727 7.0096 17.4445 7.04832 18.2978C7.08752 19.1495 7.22232 19.7308 7.42 20.2395C7.62448 20.7657 7.89784 21.212 8.34264 21.6567C8.7872 22.1017 9.23352 22.3757 9.75936 22.58C10.2684 22.7778 10.8498 22.9126 11.7014 22.9517C12.5547 22.9905 12.8272 23 14.9998 23C17.1726 23 17.4445 22.9905 18.2978 22.9517C19.1494 22.9126 19.7314 22.7778 20.2405 22.58C20.7665 22.3757 21.2122 22.1017 21.6566 21.6567C22.1017 21.212 22.375 20.7657 22.58 20.2397C22.7766 19.7308 22.9117 19.1493 22.9517 18.298C22.99 17.4447 23 17.1727 23 15C23 12.8273 22.99 12.5547 22.9517 11.7013C22.9117 10.8496 22.7766 10.2684 22.58 9.75973C22.375 9.2335 22.1017 8.78718 21.6566 8.34247C21.2117 7.89751 20.7666 7.62415 20.24 7.42008C19.73 7.22216 19.1483 7.08728 18.2966 7.04832C17.4433 7.00952 17.1716 7 14.9982 7H15.0007ZM14.283 8.44167C14.4961 8.44135 14.7338 8.44167 15.0007 8.44167C17.1368 8.44167 17.3899 8.44935 18.2334 8.48767C19.0134 8.52334 19.4368 8.65366 19.7188 8.76318C20.0922 8.90814 20.3583 9.0815 20.6382 9.36158C20.9182 9.64157 21.0914 9.90821 21.2368 10.2816C21.3463 10.5632 21.4768 10.9865 21.5123 11.7665C21.5506 12.6099 21.559 12.8631 21.559 14.9982C21.559 17.1332 21.5506 17.3865 21.5123 18.2298C21.4766 19.0098 21.3463 19.4332 21.2368 19.7148C21.0918 20.0882 20.9182 20.354 20.6382 20.6339C20.3582 20.9139 20.0923 21.0871 19.7188 21.2322C19.4371 21.3422 19.0134 21.4722 18.2334 21.5079C17.3901 21.5462 17.1368 21.5545 15.0007 21.5545C12.8646 21.5545 12.6114 21.5462 11.7681 21.5079C10.9881 21.4719 10.5647 21.3415 10.2825 21.232C9.9092 21.087 9.64248 20.9137 9.36248 20.6337C9.08248 20.3537 8.9092 20.0877 8.76384 19.7142C8.65432 19.4325 8.52384 19.0092 8.48832 18.2292C8.45 17.3858 8.44232 17.1325 8.44232 14.9962C8.44232 12.8598 8.45 12.6079 8.48832 11.7645C8.524 10.9845 8.65432 10.5612 8.76384 10.2792C8.90888 9.90581 9.08248 9.63917 9.36256 9.35918C9.64264 9.07918 9.9092 8.90582 10.2826 8.76054C10.5646 8.65054 10.9881 8.52054 11.7681 8.48471C12.5061 8.45135 12.7921 8.44135 14.283 8.43967V8.44167ZM19.2711 9.76997C18.7411 9.76997 18.3111 10.1996 18.3111 10.7296C18.3111 11.2596 18.7411 11.6896 19.2711 11.6896C19.8011 11.6896 20.2311 11.2596 20.2311 10.7296C20.2311 10.1996 19.8011 9.76965 19.2711 9.76965V9.76997ZM15.0007 10.8916C12.7319 10.8916 10.8924 12.7311 10.8924 15C10.8924 17.2689 12.7319 19.1075 15.0007 19.1075C17.2696 19.1075 19.1085 17.2689 19.1085 15C19.1085 12.7312 17.2694 10.8916 15.0006 10.8916H15.0007ZM15.0007 12.3333C16.4734 12.3333 17.6674 13.5271 17.6674 15C17.6674 16.4727 16.4734 17.6667 15.0007 17.6667C13.528 17.6667 12.3341 16.4727 12.3341 15C12.3341 13.5271 13.5279 12.3333 15.0007 12.3333Z" fill="white"/>
</g>
<defs>
<linearGradient id="paint0_linear_395_3693" x1="15" y1="0" x2="15" y2="30" gradientUnits="userSpaceOnUse">
<stop stop-color="#5FD5CA"/>
<stop offset="1" stop-color="#629BE2"/>
</linearGradient>
<clipPath id="clip0_395_3693">
<rect width="30" height="30" fill="white"/>
</clipPath>
</defs>
</svg>
