<svg width="30" height="30" viewBox="0 0 30 30" fill="none" xmlns="http://www.w3.org/2000/svg">
<g clip-path="url(#clip0_395_3685)">
<path d="M15 0C11.0227 0 7.20469 1.58133 4.39453 4.39336C1.58148 7.20651 0.000779226 11.0217 0 15C0 18.9766 1.58203 22.7946 4.39453 25.6066C7.20469 28.4187 11.0227 30 15 30C18.9773 30 22.7953 28.4187 25.6055 25.6066C28.418 22.7946 30 18.9766 30 15C30 11.0234 28.418 7.20539 25.6055 4.39336C22.7953 1.58133 18.9773 0 15 0Z" fill="url(#paint0_linear_395_3685)"/>
<path d="M6.79151 14.842C11.165 12.937 14.0806 11.681 15.5384 11.0742C19.7056 9.3415 20.5704 9.04056 21.1353 9.03036C21.2595 9.02837 21.536 9.05907 21.7165 9.20497C21.8665 9.32802 21.9087 9.49442 21.9298 9.61126C21.9485 9.72798 21.9743 9.994 21.9532 10.2017C21.7282 12.5735 20.7509 18.3293 20.254 20.9859C20.0454 22.11 19.6306 22.4869 19.2298 22.5237C18.3579 22.6038 17.697 21.9481 16.8532 21.3952C15.5337 20.5296 14.7884 19.991 13.5064 19.1466C12.0251 18.1706 12.986 17.6342 13.8298 16.7576C14.0501 16.5281 17.8892 13.0371 17.9618 12.7205C17.9712 12.6809 17.9806 12.5332 17.8915 12.4554C17.8048 12.3774 17.6759 12.4041 17.5821 12.4252C17.4485 12.4552 15.3415 13.8492 11.254 16.6071C10.6564 17.0182 10.115 17.2186 9.62745 17.2081C9.09308 17.1966 8.06183 16.9052 7.29542 16.6563C6.35792 16.3509 5.61026 16.1895 5.67589 15.6708C5.7087 15.4008 6.08136 15.1245 6.79151 14.842Z" fill="white"/>
</g>
<defs>
<linearGradient id="paint0_linear_395_3685" x1="15" y1="0" x2="15" y2="30" gradientUnits="userSpaceOnUse">
<stop stop-color="#5FD5CA"/>
<stop offset="1" stop-color="#629BE2"/>
</linearGradient>
<clipPath id="clip0_395_3685">
<rect width="30" height="30" fill="white"/>
</clipPath>
</defs>
</svg>
