<svg width="30" height="30" viewBox="0 0 30 30" fill="none" xmlns="http://www.w3.org/2000/svg">
<g clip-path="url(#clip0_395_3688)">
<circle cx="13.5" cy="16.5" r="12.5" fill="white"/>
<path d="M13.5308 0.7696C13.437 0.781319 13.103 0.822334 12.7983 0.857491C10.2495 1.1446 7.70654 2.21101 5.53271 3.89265C4.88818 4.39069 3.6167 5.66218 3.11865 6.30671C1.48975 8.40437 0.51123 10.7012 0.101074 13.3731C-0.0336914 14.252 -0.0336914 16.5137 0.101074 17.3926C0.452637 19.6661 1.21436 21.6641 2.42139 23.4688C4.82959 27.0782 8.41553 29.2989 12.8276 29.9259C13.6187 30.0372 15.7749 30.0196 16.6362 29.8966C18.8218 29.5743 20.9194 28.7716 22.7007 27.5821C26.3159 25.1622 28.5366 21.5762 29.1577 17.17C29.2573 16.4844 29.2573 14.2813 29.1577 13.5958C28.6245 9.80476 26.8667 6.56452 24.0776 4.20905C21.9858 2.43952 19.3784 1.26765 16.6655 0.880928C16.0327 0.787178 13.9292 0.711006 13.5308 0.7696ZM15.7866 6.06647C19.8647 6.48835 23.0347 9.32429 23.9077 13.3321C23.9956 13.7305 24.019 14.0821 24.019 15.0899C24.019 16.1973 24.0015 16.4259 23.8843 16.9591C23.4741 18.7755 22.6948 20.1993 21.3882 21.5118C20.064 22.8301 18.5288 23.6622 16.6421 24.0665C16.1382 24.1778 15.8628 24.1954 14.8198 24.1954C13.7651 24.1954 13.5073 24.1778 12.9917 24.0665C12.2769 23.9083 11.4155 23.627 10.7827 23.3341L10.3198 23.1173L7.78271 23.92C6.38232 24.3594 5.22803 24.7051 5.21045 24.6876C5.19287 24.6759 5.55615 23.586 6.01318 22.2794L6.83936 19.8946L6.48193 19.1446C5.80811 17.7325 5.56201 16.6661 5.56787 15.1485C5.56787 13.9473 5.66162 13.3438 6.00146 12.3301C6.79834 9.93952 8.4917 8.02937 10.7769 6.93952C12.3354 6.19538 14.0933 5.89069 15.7866 6.06647Z" fill="url(#paint0_linear_395_3688)"/>
<path d="M13.5604 7.49568C10.994 7.95857 8.94322 9.45271 7.8065 11.6793C6.60533 14.0406 6.74009 16.9 8.16392 19.1148C8.32798 19.3726 8.46275 19.6129 8.46275 19.648C8.46275 19.6832 8.26353 20.3219 8.01744 21.066C7.7772 21.816 7.58384 22.4371 7.59556 22.4488C7.60728 22.4605 8.28111 22.2613 9.08384 22.0152L10.5545 21.5582L11.1346 21.8687C11.7967 22.2203 12.7049 22.5367 13.4725 22.6832C14.2225 22.8297 15.5702 22.8179 16.3495 22.6597C19.4725 22.0328 21.91 19.648 22.5194 16.6246C22.6893 15.7926 22.7245 15.1422 22.6424 14.4449C22.2499 11.0289 19.8534 8.35701 16.4901 7.57771C15.8338 7.43123 14.1991 7.38435 13.5604 7.49568ZM12.2069 11.1344C12.2362 11.1695 12.4764 11.691 12.7401 12.3062C13.1092 13.1734 13.203 13.4429 13.162 13.5367C13.1327 13.6012 12.9217 13.8707 12.6874 14.1402C12.4588 14.4039 12.2713 14.6441 12.2713 14.6676C12.2713 14.7613 12.6874 15.4058 12.992 15.775C13.1561 15.9859 13.4842 16.314 13.7069 16.5074C14.369 17.0699 15.6639 17.7789 15.8924 17.6969C15.9452 17.6793 16.1737 17.4273 16.3905 17.1344C17.0116 16.3258 16.8885 16.3433 18.1131 16.9058C19.4139 17.4976 19.4198 17.5035 19.4198 17.7437C19.4139 18.5054 18.8983 19.3023 18.1893 19.6246C17.287 20.0347 16.2147 19.8707 14.6444 19.0972C13.742 18.6461 13.0038 18.107 12.1835 17.2867C11.3221 16.4312 10.7772 15.7164 10.3963 14.9429C10.0155 14.1812 9.91001 13.7535 9.93931 13.0738C9.95103 12.6226 9.98619 12.482 10.1385 12.1597C10.326 11.7672 10.7245 11.2691 10.9471 11.1519C11.0116 11.1168 11.1463 11.0699 11.2401 11.0523C11.4627 11.0054 12.1366 11.064 12.2069 11.1344Z" fill="url(#paint1_linear_395_3688)"/>
</g>
<defs>
<linearGradient id="paint0_linear_395_3688" x1="14.6162" y1="30" x2="14.6162" y2="0.749075" gradientUnits="userSpaceOnUse">
<stop stop-color="#5FD5CA"/>
<stop offset="1" stop-color="#629BE2"/>
</linearGradient>
<linearGradient id="paint1_linear_395_3688" x1="14.8385" y1="22.7861" x2="14.8385" y2="7.43408" gradientUnits="userSpaceOnUse">
<stop stop-color="#5FD5CA"/>
<stop offset="1" stop-color="#629BE2"/>
</linearGradient>
<clipPath id="clip0_395_3688">
<rect width="30" height="30" fill="white"/>
</clipPath>
</defs>
</svg>
