<svg width="33" height="32" viewBox="0 0 33 32" fill="none" xmlns="http://www.w3.org/2000/svg">
<path d="M18.6535 16.0008L24.0352 10.6175C24.1806 10.477 24.2966 10.3091 24.3764 10.1233C24.4562 9.93757 24.4982 9.7378 24.4999 9.53565C24.5017 9.3335 24.4632 9.13303 24.3866 8.94593C24.3101 8.75883 24.197 8.58885 24.0541 8.44591C23.9111 8.30296 23.7412 8.18992 23.5541 8.11337C23.367 8.03682 23.1665 7.9983 22.9644 8.00006C22.7622 8.00181 22.5624 8.04381 22.3767 8.1236C22.191 8.20339 22.023 8.31937 21.8825 8.46478L16.4992 13.8465L11.1175 8.46478C10.977 8.31937 10.8091 8.20339 10.6233 8.1236C10.4376 8.04381 10.2378 8.00181 10.0357 8.00006C9.8335 7.9983 9.63303 8.03682 9.44593 8.11337C9.25883 8.18992 9.08885 8.30296 8.94591 8.44591C8.80296 8.58885 8.68992 8.75883 8.61337 8.94593C8.53682 9.13303 8.4983 9.3335 8.50006 9.53565C8.50181 9.7378 8.54381 9.93757 8.6236 10.1233C8.70339 10.3091 8.81937 10.477 8.96478 10.6175L14.3465 15.9992L8.96478 21.3825C8.81937 21.523 8.70339 21.691 8.6236 21.8767C8.54381 22.0624 8.50181 22.2622 8.50006 22.4644C8.4983 22.6665 8.53682 22.867 8.61337 23.0541C8.68992 23.2412 8.80296 23.4111 8.94591 23.5541C9.08885 23.697 9.25883 23.8101 9.44593 23.8866C9.63303 23.9632 9.8335 24.0017 10.0357 23.9999C10.2378 23.9982 10.4376 23.9562 10.6233 23.8764C10.8091 23.7966 10.977 23.6806 11.1175 23.5352L16.4992 18.1535L21.8825 23.5352C22.023 23.6806 22.191 23.7966 22.3767 23.8764C22.5624 23.9562 22.7622 23.9982 22.9644 23.9999C23.1665 24.0017 23.367 23.9632 23.5541 23.8866C23.7412 23.8101 23.9111 23.697 24.0541 23.5541C24.197 23.4111 24.3101 23.2412 24.3866 23.0541C24.4632 22.867 24.5017 22.6665 24.4999 22.4644C24.4982 22.2622 24.4562 22.0624 24.3764 21.8767C24.2966 21.691 24.1806 21.523 24.0352 21.3825L18.6535 16.0008Z" fill="#1D28B5"/>
</svg>
