<svg width="87" height="109" viewBox="0 0 87 109" fill="none" xmlns="http://www.w3.org/2000/svg">
<path d="M45.5216 32.3617H37.2359C36.8273 32.3617 36.4961 32.691 36.4961 33.0972V74.9712C36.4961 75.3774 36.8273 75.7067 37.2359 75.7067H45.5216C45.9302 75.7067 46.2614 75.3774 46.2614 74.9712V33.0972C46.2614 32.691 45.9302 32.3617 45.5216 32.3617Z" fill="url(#paint0_linear_395_3667)"/>
<path d="M57.9996 24.4184H49.7632C49.3547 24.4184 49.0234 24.7477 49.0234 25.1539V67.0769C49.0234 67.4831 49.3547 67.8124 49.7632 67.8124H57.9996C58.4082 67.8124 58.7394 67.4831 58.7394 67.0769V25.1539C58.7394 24.7477 58.4082 24.4184 57.9996 24.4184Z" fill="url(#paint1_linear_395_3667)"/>
<path d="M70.5255 16.5241H62.2398C61.8312 16.5241 61.5 16.8534 61.5 17.2596V59.0846C61.5 59.4908 61.8312 59.8201 62.2398 59.8201H70.5255C70.9341 59.8201 71.2653 59.4908 71.2653 59.0846V17.2596C71.2653 16.8534 70.9341 16.5241 70.5255 16.5241Z" fill="url(#paint2_linear_395_3667)"/>
<path d="M34.4659 37.5047C30.774 39.7846 24.5216 43.6074 20.7154 45.724C20.4651 45.8632 20.1491 45.7542 20.0332 45.4934C12.3405 28.1817 20.4537 12.2239 33.5694 5.4046C49.8202 -3.04487 76.3789 5.64976 76.8968 32.5688C77.3036 53.7223 50.2809 72.1719 28.0921 55.1065C27.9203 54.9742 27.8528 54.7412 27.9341 54.5412C29.0072 51.8988 30.6015 48.8369 31.579 46.2165C31.7533 45.7494 31.2008 45.424 30.8418 45.7716C16.3678 59.7799 14.4753 61.5951 13.0492 63.019C12.8691 63.1989 12.8629 63.4916 13.0293 63.6839C37.8718 92.4014 79.2789 75.5915 82.9443 44.0404C84.383 31.6606 80.6944 14.2525 61.8789 4.21834C49.6229 -2.3177 27.6264 -2.8084 13.5949 14.0589C-1.26376 31.9207 5.13187 51.509 10.2698 59.6945C10.4253 59.9422 10.7648 59.9838 10.9915 59.798C23.4034 49.6306 31.3394 41.939 35.0314 38.187C35.4315 37.7803 34.9519 37.2046 34.4659 37.5047Z" fill="url(#paint3_linear_395_3667)"/>
<path d="M11.5038 102.258H1.32422V88.5293H4.87524V99.1596H11.5038V102.258ZM16.818 102.258H13.3262V92.295H16.818V102.258ZM15.0622 91.3928C13.9575 91.3928 13.0697 90.5102 13.0697 89.3923C13.0697 88.2743 13.9575 87.3917 15.0622 87.3917C16.1867 87.3917 17.0745 88.2743 17.0745 89.3923C17.0745 90.5102 16.1867 91.3928 15.0622 91.3928ZM23.6946 106.299C21.998 106.299 20.6762 106.024 19.7292 105.455V102.435C20.7946 103.082 21.998 103.396 23.3197 103.396C23.7932 103.396 24.2272 103.337 24.602 103.239C25.3912 103.023 26.1803 102.278 26.1803 101.082V100.572C25.3912 101.415 24.385 101.847 23.1422 101.847C21.8401 101.847 20.7748 101.376 19.9463 100.454C19.1177 99.5322 18.7034 98.3555 18.7034 96.9433C18.7034 95.5312 19.1177 94.3544 19.9463 93.4326C20.7748 92.5107 21.8401 92.04 23.1422 92.04C24.3653 92.04 25.3714 92.4715 26.1803 93.3345V92.295H29.6721V100.866C29.6721 102.67 28.9027 104.161 27.719 105.004C26.5354 105.867 25.1347 106.299 23.6946 106.299ZM24.1878 98.9439C25.0755 98.9439 25.7463 98.63 26.1803 98.022V95.8646C25.7265 95.2566 25.0755 94.9428 24.1878 94.9428C22.9449 94.9428 22.1755 95.7861 22.1755 96.9433C22.1755 98.1005 22.9449 98.9439 24.1878 98.9439ZM35.4455 96.0215V102.258H31.9536V88.5293H35.4455V93.413C36.3135 92.4911 37.3196 92.04 38.4836 92.04C40.7128 92.04 42.0543 93.6287 42.0543 96.1392V102.258H38.5625V96.7864C38.5625 95.6096 37.9312 95.1389 37.1223 95.1389C36.4319 95.1389 35.8795 95.4331 35.4455 96.0215ZM48.604 102.513C46.5523 102.513 45.1319 101.376 45.1319 99.2577V95.0801H43.3761V92.295H45.1319V89.7453H48.6237V92.295H51.1687V95.0801H48.6237V98.3162C48.6237 99.1792 48.9393 99.5126 49.7878 99.5126C50.2613 99.5126 50.715 99.395 51.1687 99.1596V101.925C50.5375 102.317 49.6892 102.513 48.604 102.513Z" fill="white"/>
<path d="M56.8166 102.258H53.2656V88.5293H59.4207C60.9595 88.5293 62.1826 88.9216 63.0901 89.7257C63.9976 90.5298 64.4513 91.5497 64.4513 92.8246C64.4513 94.0994 63.9976 95.1389 63.0901 95.9431C62.1826 96.7472 60.9595 97.1395 59.4207 97.1395H56.8166V102.258ZM56.8166 91.5105V94.2367H59.1643C60.1901 94.2367 60.8609 93.7268 60.8609 92.8638C60.8609 92.0008 60.2098 91.5105 59.1643 91.5105H56.8166ZM72.7366 97.2768C72.7366 96.0019 71.8093 95.0016 70.527 95.0016C69.2447 95.0016 68.3175 96.0019 68.3175 97.2768C68.3175 98.5908 69.2447 99.5519 70.527 99.5519C71.8093 99.5519 72.7366 98.5908 72.7366 97.2768ZM74.5713 101.023C73.5059 102.023 72.1644 102.513 70.527 102.513C68.8896 102.513 67.5481 102.023 66.4828 101.023C65.4175 100.023 64.8849 98.7674 64.8849 97.2768C64.8849 95.7862 65.4175 94.5505 66.4828 93.5503C67.5481 92.55 68.8896 92.04 70.527 92.04C72.1644 92.04 73.5059 92.55 74.5713 93.5503C75.6366 94.5505 76.1692 95.7862 76.1692 97.2768C76.1692 98.7674 75.6366 100.023 74.5713 101.023ZM81.8089 102.513C79.9545 102.513 78.5341 102.219 77.5674 101.631V98.7085C77.9817 99.0027 78.5538 99.2577 79.3035 99.4734C80.0531 99.6892 80.8423 99.7872 81.6511 99.7872C82.4599 99.7872 82.8742 99.6303 82.8742 99.2969C82.8742 99.1204 82.7756 98.9831 82.4402 98.8458L81.9865 98.6889C81.73 98.6104 80.9606 98.4143 80.5858 98.3162C79.4416 97.9828 78.6327 97.6102 78.1593 97.1983C77.7055 96.7864 77.4688 96.1196 77.4688 95.2174C77.4688 93.2365 79.2048 92.04 82.0654 92.04C83.545 92.04 84.8076 92.3539 85.8531 92.9815V95.8058C84.6892 95.0801 83.4858 94.727 82.2035 94.727C81.4538 94.727 81.079 94.9036 81.079 95.237C81.079 95.4135 81.2171 95.59 81.5327 95.6881L82.0062 95.8254C82.3021 95.9038 82.9729 96.0411 83.3082 96.1196C85.4389 96.6687 86.3858 97.5513 86.3858 99.2969C86.3858 100.258 85.9715 101.023 85.1429 101.631C84.3341 102.219 83.2096 102.513 81.8089 102.513Z" fill="url(#paint4_linear_395_3667)"/>
<defs>
<linearGradient id="paint0_linear_395_3667" x1="41.3787" y1="32.3617" x2="41.3787" y2="75.7067" gradientUnits="userSpaceOnUse">
<stop stop-color="#5FD5CA"/>
<stop offset="1" stop-color="#629BE2"/>
</linearGradient>
<linearGradient id="paint1_linear_395_3667" x1="53.8816" y1="24.4184" x2="53.8816" y2="67.8124" gradientUnits="userSpaceOnUse">
<stop stop-color="#5FD5CA"/>
<stop offset="1" stop-color="#629BE2"/>
</linearGradient>
<linearGradient id="paint2_linear_395_3667" x1="66.3827" y1="16.5241" x2="66.3827" y2="59.8201" gradientUnits="userSpaceOnUse">
<stop stop-color="#5FD5CA"/>
<stop offset="1" stop-color="#629BE2"/>
</linearGradient>
<linearGradient id="paint3_linear_395_3667" x1="14.7756" y1="14.8652" x2="73.0102" y2="65.9234" gradientUnits="userSpaceOnUse">
<stop stop-color="#1C27B5"/>
<stop offset="1" stop-color="#5973E1"/>
</linearGradient>
<linearGradient id="paint4_linear_395_3667" x1="43.4796" y1="84.3125" x2="43.4796" y2="108.976" gradientUnits="userSpaceOnUse">
<stop stop-color="#5FD5CA"/>
<stop offset="1" stop-color="#629BE2"/>
</linearGradient>
</defs>
</svg>
